<svg xmlns="http://www.w3.org/2000/svg" viewBox="0 0 1200 420">
<rect x="0" y="0" width="1200" height="420" fill="#f8fafc" />
<text x="600" y="22" text-anchor="middle" font-size="16" font-weight="600" fill="#0f172a">Daily Commit Activity (07/01 - 02/22)</text>
<line x1="60" y1="340" x2="1180" y2="340" stroke="#cbd5e1" stroke-width="1" />
<g font-family="monospace" font-size="11" fill="#1e293b">
<line x1="60" y1="340.0" x2="1180" y2="340.0" stroke="#e2e8f0" stroke-width="1" />
<text x="52" y="343.0" text-anchor="end">0</text>
<line x1="60" y1="264.4871794871795" x2="1180" y2="264.4871794871795" stroke="#e2e8f0" stroke-width="1" />
<text x="52" y="267.4871794871795" text-anchor="end">19</text>
<line x1="60" y1="188.97435897435898" x2="1180" y2="188.97435897435898" stroke="#e2e8f0" stroke-width="1" />
<text x="52" y="191.97435897435898" text-anchor="end">38</text>
<line x1="60" y1="113.46153846153848" x2="1180" y2="113.46153846153848" stroke="#e2e8f0" stroke-width="1" />
<text x="52" y="116.46153846153848" text-anchor="end">57</text>
<line x1="60" y1="37.948717948717956" x2="1180" y2="37.948717948717956" stroke="#e2e8f0" stroke-width="1" />
<text x="52" y="40.948717948717956" text-anchor="end">76</text>
</g>
<g font-family="monospace">
<rect x="60.0" y="161.15384615384616" width="6.904761904761905" height="178.84615384615384" fill="#0f766e" rx="2"/>
<text x="63.45238095238095" y="370" transform="rotate(-45 63.45238095238095,370)" text-anchor="middle" font-size="8" fill="#334155">07/14</text>
<text x="63.45238095238095" y="157" text-anchor="middle" font-size="9" fill="#334155">45</text>
<rect x="68.9047619047619" y="336.02564102564105" width="6.904761904761905" height="3.974358974358974" fill="#0f766e" rx="2"/>
<text x="72.35714285714285" y="370" transform="rotate(-45 72.35714285714285,370)" text-anchor="middle" font-size="8" fill="#334155">07/17</text>
<text x="72.35714285714285" y="332" text-anchor="middle" font-size="9" fill="#334155">1</text>
<rect x="77.80952380952381" y="304.2307692307692" width="6.904761904761905" height="35.769230769230774" fill="#0f766e" rx="2"/>
<text x="81.26190476190476" y="370" transform="rotate(-45 81.26190476190476,370)" text-anchor="middle" font-size="8" fill="#334155">07/18</text>
<text x="81.26190476190476" y="300" text-anchor="middle" font-size="9" fill="#334155">9</text>
<rect x="86.71428571428572" y="296.28205128205127" width="6.904761904761905" height="43.717948717948715" fill="#0f766e" rx="2"/>
<text x="90.16666666666667" y="370" transform="rotate(-45 90.16666666666667,370)" text-anchor="middle" font-size="8" fill="#334155">07/19</text>
<text x="90.16666666666667" y="292" text-anchor="middle" font-size="9" fill="#334155">11</text>
<rect x="95.61904761904762" y="332.05128205128204" width="6.904761904761905" height="7.948717948717948" fill="#0f766e" rx="2"/>
<text x="99.07142857142857" y="370" transform="rotate(-45 99.07142857142857,370)" text-anchor="middle" font-size="8" fill="#334155">07/20</text>
<text x="99.07142857142857" y="328" text-anchor="middle" font-size="9" fill="#334155">2</text>
<rect x="104.52380952380952" y="169.1025641025641" width="6.904761904761905" height="170.8974358974359" fill="#0f766e" rx="2"/>
<text x="107.97619047619047" y="370" transform="rotate(-45 107.97619047619047,370)" text-anchor="middle" font-size="8" fill="#334155">07/21</text>
<text x="107.97619047619047" y="165" text-anchor="middle" font-size="9" fill="#334155">43</text>
<rect x="113.42857142857143" y="244.6153846153846" width="6.904761904761905" height="95.38461538461539" fill="#0f766e" rx="2"/>
<text x="116.88095238095238" y="370" transform="rotate(-45 116.88095238095238,370)" text-anchor="middle" font-size="8" fill="#334155">07/22</text>
<text x="116.88095238095238" y="240" text-anchor="middle" font-size="9" fill="#334155">24</text>
<rect x="122.33333333333334" y="288.3333333333333" width="6.904761904761905" height="51.666666666666664" fill="#0f766e" rx="2"/>
<text x="125.78571428571429" y="370" transform="rotate(-45 125.78571428571429,370)" text-anchor="middle" font-size="8" fill="#334155">07/23</text>
<text x="125.78571428571429" y="284" text-anchor="middle" font-size="9" fill="#334155">13</text>
<rect x="131.23809523809524" y="324.1025641025641" width="6.904761904761905" height="15.897435897435896" fill="#0f766e" rx="2"/>
<text x="134.6904761904762" y="370" transform="rotate(-45 134.6904761904762,370)" text-anchor="middle" font-size="8" fill="#334155">07/24</text>
<text x="134.6904761904762" y="320" text-anchor="middle" font-size="9" fill="#334155">4</text>
<rect x="140.14285714285714" y="332.05128205128204" width="6.904761904761905" height="7.948717948717948" fill="#0f766e" rx="2"/>
<text x="143.5952380952381" y="370" transform="rotate(-45 143.5952380952381,370)" text-anchor="middle" font-size="8" fill="#334155">07/25</text>
<text x="143.5952380952381" y="328" text-anchor="middle" font-size="9" fill="#334155">2</text>
<rect x="149.04761904761904" y="332.05128205128204" width="6.904761904761905" height="7.948717948717948" fill="#0f766e" rx="2"/>
<text x="152.5" y="370" transform="rotate(-45 152.5,370)" text-anchor="middle" font-size="8" fill="#334155">07/26</text>
<text x="152.5" y="328" text-anchor="middle" font-size="9" fill="#334155">2</text>
<rect x="157.95238095238096" y="196.9230769230769" width="6.904761904761905" height="143.0769230769231" fill="#0f766e" rx="2"/>
<text x="161.40476190476193" y="370" transform="rotate(-45 161.40476190476193,370)" text-anchor="middle" font-size="8" fill="#334155">07/27</text>
<text x="161.40476190476193" y="192" text-anchor="middle" font-size="9" fill="#334155">36</text>
<rect x="166.85714285714286" y="328.0769230769231" width="6.904761904761905" height="11.923076923076923" fill="#0f766e" rx="2"/>
<text x="170.30952380952382" y="370" transform="rotate(-45 170.30952380952382,370)" text-anchor="middle" font-size="8" fill="#334155">07/28</text>
<text x="170.30952380952382" y="324" text-anchor="middle" font-size="9" fill="#334155">3</text>
<rect x="175.76190476190476" y="284.35897435897436" width="6.904761904761905" height="55.64102564102564" fill="#0f766e" rx="2"/>
<text x="179.21428571428572" y="370" transform="rotate(-45 179.21428571428572,370)" text-anchor="middle" font-size="8" fill="#334155">07/29</text>
<text x="179.21428571428572" y="280" text-anchor="middle" font-size="9" fill="#334155">14</text>
<rect x="184.66666666666669" y="316.15384615384613" width="6.904761904761905" height="23.846153846153847" fill="#0f766e" rx="2"/>
<text x="188.11904761904765" y="370" transform="rotate(-45 188.11904761904765,370)" text-anchor="middle" font-size="8" fill="#334155">07/31</text>
<text x="188.11904761904765" y="312" text-anchor="middle" font-size="9" fill="#334155">6</text>
<rect x="193.57142857142858" y="276.4102564102564" width="6.904761904761905" height="63.589743589743584" fill="#0f766e" rx="2"/>
<text x="197.02380952380955" y="370" transform="rotate(-45 197.02380952380955,370)" text-anchor="middle" font-size="8" fill="#334155">08/02</text>
<text x="197.02380952380955" y="272" text-anchor="middle" font-size="9" fill="#334155">16</text>
<rect x="202.47619047619048" y="157.17948717948718" width="6.904761904761905" height="182.82051282051282" fill="#0f766e" rx="2"/>
<text x="205.92857142857144" y="370" transform="rotate(-45 205.92857142857144,370)" text-anchor="middle" font-size="8" fill="#334155">08/03</text>
<text x="205.92857142857144" y="153" text-anchor="middle" font-size="9" fill="#334155">46</text>
<rect x="211.38095238095238" y="145.25641025641025" width="6.904761904761905" height="194.74358974358975" fill="#0f766e" rx="2"/>
<text x="214.83333333333334" y="370" transform="rotate(-45 214.83333333333334,370)" text-anchor="middle" font-size="8" fill="#334155">08/04</text>
<text x="214.83333333333334" y="141" text-anchor="middle" font-size="9" fill="#334155">49</text>
<rect x="220.28571428571428" y="117.43589743589743" width="6.904761904761905" height="222.56410256410257" fill="#0f766e" rx="2"/>
<text x="223.73809523809524" y="370" transform="rotate(-45 223.73809523809524,370)" text-anchor="middle" font-size="8" fill="#334155">08/05</text>
<text x="223.73809523809524" y="113" text-anchor="middle" font-size="9" fill="#334155">56</text>
<rect x="229.1904761904762" y="105.51282051282053" width="6.904761904761905" height="234.48717948717947" fill="#0f766e" rx="2"/>
<text x="232.64285714285717" y="370" transform="rotate(-45 232.64285714285717,370)" text-anchor="middle" font-size="8" fill="#334155">08/06</text>
<text x="232.64285714285717" y="101" text-anchor="middle" font-size="9" fill="#334155">59</text>
<rect x="238.0952380952381" y="125.38461538461539" width="6.904761904761905" height="214.6153846153846" fill="#0f766e" rx="2"/>
<text x="241.54761904761907" y="370" transform="rotate(-45 241.54761904761907,370)" text-anchor="middle" font-size="8" fill="#334155">08/07</text>
<text x="241.54761904761907" y="121" text-anchor="middle" font-size="9" fill="#334155">54</text>
<rect x="247.0" y="30.0" width="6.904761904761905" height="310.0" fill="#0f766e" rx="2"/>
<text x="250.45238095238096" y="370" transform="rotate(-45 250.45238095238096,370)" text-anchor="middle" font-size="8" fill="#334155">08/08</text>
<text x="250.45238095238096" y="26" text-anchor="middle" font-size="9" fill="#334155">78</text>
<rect x="255.90476190476193" y="320.12820512820514" width="6.904761904761905" height="19.87179487179487" fill="#0f766e" rx="2"/>
<text x="259.3571428571429" y="370" transform="rotate(-45 259.3571428571429,370)" text-anchor="middle" font-size="8" fill="#334155">08/09</text>
<text x="259.3571428571429" y="316" text-anchor="middle" font-size="9" fill="#334155">5</text>
<rect x="264.80952380952385" y="113.46153846153848" width="6.904761904761905" height="226.53846153846152" fill="#0f766e" rx="2"/>
<text x="268.2619047619048" y="370" transform="rotate(-45 268.2619047619048,370)" text-anchor="middle" font-size="8" fill="#334155">08/11</text>
<text x="268.2619047619048" y="109" text-anchor="middle" font-size="9" fill="#334155">57</text>
<rect x="273.7142857142857" y="45.89743589743591" width="6.904761904761905" height="294.1025641025641" fill="#0f766e" rx="2"/>
<text x="277.1666666666667" y="370" transform="rotate(-45 277.1666666666667,370)" text-anchor="middle" font-size="8" fill="#334155">08/12</text>
<text x="277.1666666666667" y="41" text-anchor="middle" font-size="9" fill="#334155">74</text>
<rect x="282.6190476190476" y="133.33333333333334" width="6.904761904761905" height="206.66666666666666" fill="#0f766e" rx="2"/>
<text x="286.07142857142856" y="370" transform="rotate(-45 286.07142857142856,370)" text-anchor="middle" font-size="8" fill="#334155">08/13</text>
<text x="286.07142857142856" y="129" text-anchor="middle" font-size="9" fill="#334155">52</text>
<rect x="291.5238095238095" y="137.3076923076923" width="6.904761904761905" height="202.6923076923077" fill="#0f766e" rx="2"/>
<text x="294.9761904761905" y="370" transform="rotate(-45 294.9761904761905,370)" text-anchor="middle" font-size="8" fill="#334155">08/14</text>
<text x="294.9761904761905" y="133" text-anchor="middle" font-size="9" fill="#334155">51</text>
<rect x="300.42857142857144" y="264.4871794871795" width="6.904761904761905" height="75.51282051282051" fill="#0f766e" rx="2"/>
<text x="303.8809523809524" y="370" transform="rotate(-45 303.8809523809524,370)" text-anchor="middle" font-size="8" fill="#334155">08/15</text>
<text x="303.8809523809524" y="260" text-anchor="middle" font-size="9" fill="#334155">19</text>
<rect x="309.33333333333337" y="284.35897435897436" width="6.904761904761905" height="55.64102564102564" fill="#0f766e" rx="2"/>
<text x="312.78571428571433" y="370" transform="rotate(-45 312.78571428571433,370)" text-anchor="middle" font-size="8" fill="#334155">08/16</text>
<text x="312.78571428571433" y="280" text-anchor="middle" font-size="9" fill="#334155">14</text>
<rect x="318.23809523809524" y="324.1025641025641" width="6.904761904761905" height="15.897435897435896" fill="#0f766e" rx="2"/>
<text x="321.6904761904762" y="370" transform="rotate(-45 321.6904761904762,370)" text-anchor="middle" font-size="8" fill="#334155">08/17</text>
<text x="321.6904761904762" y="320" text-anchor="middle" font-size="9" fill="#334155">4</text>
<rect x="327.14285714285717" y="232.69230769230768" width="6.904761904761905" height="107.3076923076923" fill="#0f766e" rx="2"/>
<text x="330.59523809523813" y="370" transform="rotate(-45 330.59523809523813,370)" text-anchor="middle" font-size="8" fill="#334155">08/18</text>
<text x="330.59523809523813" y="228" text-anchor="middle" font-size="9" fill="#334155">27</text>
<rect x="336.04761904761904" y="240.64102564102564" width="6.904761904761905" height="99.35897435897436" fill="#0f766e" rx="2"/>
<text x="339.5" y="370" transform="rotate(-45 339.5,370)" text-anchor="middle" font-size="8" fill="#334155">08/19</text>
<text x="339.5" y="236" text-anchor="middle" font-size="9" fill="#334155">25</text>
<rect x="344.95238095238096" y="288.3333333333333" width="6.904761904761905" height="51.666666666666664" fill="#0f766e" rx="2"/>
<text x="348.4047619047619" y="370" transform="rotate(-45 348.4047619047619,370)" text-anchor="middle" font-size="8" fill="#334155">08/20</text>
<text x="348.4047619047619" y="284" text-anchor="middle" font-size="9" fill="#334155">13</text>
<rect x="353.8571428571429" y="196.9230769230769" width="6.904761904761905" height="143.0769230769231" fill="#0f766e" rx="2"/>
<text x="357.30952380952385" y="370" transform="rotate(-45 357.30952380952385,370)" text-anchor="middle" font-size="8" fill="#334155">08/21</text>
<text x="357.30952380952385" y="192" text-anchor="middle" font-size="9" fill="#334155">36</text>
<rect x="362.76190476190476" y="256.53846153846155" width="6.904761904761905" height="83.46153846153845" fill="#0f766e" rx="2"/>
<text x="366.2142857142857" y="370" transform="rotate(-45 366.2142857142857,370)" text-anchor="middle" font-size="8" fill="#334155">08/22</text>
<text x="366.2142857142857" y="252" text-anchor="middle" font-size="9" fill="#334155">21</text>
<rect x="371.6666666666667" y="332.05128205128204" width="6.904761904761905" height="7.948717948717948" fill="#0f766e" rx="2"/>
<text x="375.11904761904765" y="370" transform="rotate(-45 375.11904761904765,370)" text-anchor="middle" font-size="8" fill="#334155">08/23</text>
<text x="375.11904761904765" y="328" text-anchor="middle" font-size="9" fill="#334155">2</text>
<rect x="380.57142857142856" y="304.2307692307692" width="6.904761904761905" height="35.769230769230774" fill="#0f766e" rx="2"/>
<text x="384.0238095238095" y="370" transform="rotate(-45 384.0238095238095,370)" text-anchor="middle" font-size="8" fill="#334155">08/24</text>
<text x="384.0238095238095" y="300" text-anchor="middle" font-size="9" fill="#334155">9</text>
<rect x="389.4761904761905" y="204.87179487179486" width="6.904761904761905" height="135.12820512820514" fill="#0f766e" rx="2"/>
<text x="392.92857142857144" y="370" transform="rotate(-45 392.92857142857144,370)" text-anchor="middle" font-size="8" fill="#334155">08/25</text>
<text x="392.92857142857144" y="200" text-anchor="middle" font-size="9" fill="#334155">34</text>
<rect x="398.3809523809524" y="216.7948717948718" width="6.904761904761905" height="123.2051282051282" fill="#0f766e" rx="2"/>
<text x="401.83333333333337" y="370" transform="rotate(-45 401.83333333333337,370)" text-anchor="middle" font-size="8" fill="#334155">08/26</text>
<text x="401.83333333333337" y="212" text-anchor="middle" font-size="9" fill="#334155">31</text>
<rect x="407.2857142857143" y="196.9230769230769" width="6.904761904761905" height="143.0769230769231" fill="#0f766e" rx="2"/>
<text x="410.73809523809524" y="370" transform="rotate(-45 410.73809523809524,370)" text-anchor="middle" font-size="8" fill="#334155">08/27</text>
<text x="410.73809523809524" y="192" text-anchor="middle" font-size="9" fill="#334155">36</text>
<rect x="416.1904761904762" y="252.56410256410257" width="6.904761904761905" height="87.43589743589743" fill="#0f766e" rx="2"/>
<text x="419.64285714285717" y="370" transform="rotate(-45 419.64285714285717,370)" text-anchor="middle" font-size="8" fill="#334155">08/28</text>
<text x="419.64285714285717" y="248" text-anchor="middle" font-size="9" fill="#334155">22</text>
<rect x="425.09523809523813" y="336.02564102564105" width="6.904761904761905" height="3.974358974358974" fill="#0f766e" rx="2"/>
<text x="428.5476190476191" y="370" transform="rotate(-45 428.5476190476191,370)" text-anchor="middle" font-size="8" fill="#334155">08/29</text>
<text x="428.5476190476191" y="332" text-anchor="middle" font-size="9" fill="#334155">1</text>
<rect x="434.0" y="328.0769230769231" width="6.904761904761905" height="11.923076923076923" fill="#0f766e" rx="2"/>
<text x="437.45238095238096" y="370" transform="rotate(-45 437.45238095238096,370)" text-anchor="middle" font-size="8" fill="#334155">08/30</text>
<text x="437.45238095238096" y="324" text-anchor="middle" font-size="9" fill="#334155">3</text>
<rect x="442.9047619047619" y="292.3076923076923" width="6.904761904761905" height="47.69230769230769" fill="#0f766e" rx="2"/>
<text x="446.3571428571429" y="370" transform="rotate(-45 446.3571428571429,370)" text-anchor="middle" font-size="8" fill="#334155">08/31</text>
<text x="446.3571428571429" y="288" text-anchor="middle" font-size="9" fill="#334155">12</text>
<rect x="451.80952380952385" y="188.97435897435898" width="6.904761904761905" height="151.02564102564102" fill="#0f766e" rx="2"/>
<text x="455.2619047619048" y="370" transform="rotate(-45 455.2619047619048,370)" text-anchor="middle" font-size="8" fill="#334155">09/01</text>
<text x="455.2619047619048" y="184" text-anchor="middle" font-size="9" fill="#334155">38</text>
<rect x="460.7142857142857" y="276.4102564102564" width="6.904761904761905" height="63.589743589743584" fill="#0f766e" rx="2"/>
<text x="464.1666666666667" y="370" transform="rotate(-45 464.1666666666667,370)" text-anchor="middle" font-size="8" fill="#334155">09/02</text>
<text x="464.1666666666667" y="272" text-anchor="middle" font-size="9" fill="#334155">16</text>
<rect x="469.61904761904765" y="268.46153846153845" width="6.904761904761905" height="71.53846153846155" fill="#0f766e" rx="2"/>
<text x="473.0714285714286" y="370" transform="rotate(-45 473.0714285714286,370)" text-anchor="middle" font-size="8" fill="#334155">09/03</text>
<text x="473.0714285714286" y="264" text-anchor="middle" font-size="9" fill="#334155">18</text>
<rect x="478.5238095238095" y="332.05128205128204" width="6.904761904761905" height="7.948717948717948" fill="#0f766e" rx="2"/>
<text x="481.9761904761905" y="370" transform="rotate(-45 481.9761904761905,370)" text-anchor="middle" font-size="8" fill="#334155">09/07</text>
<text x="481.9761904761905" y="328" text-anchor="middle" font-size="9" fill="#334155">2</text>
<rect x="487.42857142857144" y="336.02564102564105" width="6.904761904761905" height="3.974358974358974" fill="#0f766e" rx="2"/>
<text x="490.8809523809524" y="370" transform="rotate(-45 490.8809523809524,370)" text-anchor="middle" font-size="8" fill="#334155">09/09</text>
<text x="490.8809523809524" y="332" text-anchor="middle" font-size="9" fill="#334155">1</text>
<rect x="496.33333333333337" y="296.28205128205127" width="6.904761904761905" height="43.717948717948715" fill="#0f766e" rx="2"/>
<text x="499.78571428571433" y="370" transform="rotate(-45 499.78571428571433,370)" text-anchor="middle" font-size="8" fill="#334155">09/10</text>
<text x="499.78571428571433" y="292" text-anchor="middle" font-size="9" fill="#334155">11</text>
<rect x="505.23809523809524" y="328.0769230769231" width="6.904761904761905" height="11.923076923076923" fill="#0f766e" rx="2"/>
<text x="508.6904761904762" y="370" transform="rotate(-45 508.6904761904762,370)" text-anchor="middle" font-size="8" fill="#334155">09/11</text>
<text x="508.6904761904762" y="324" text-anchor="middle" font-size="9" fill="#334155">3</text>
<rect x="514.1428571428571" y="336.02564102564105" width="6.904761904761905" height="3.974358974358974" fill="#0f766e" rx="2"/>
<text x="517.5952380952381" y="370" transform="rotate(-45 517.5952380952381,370)" text-anchor="middle" font-size="8" fill="#334155">09/12</text>
<text x="517.5952380952381" y="332" text-anchor="middle" font-size="9" fill="#334155">1</text>
<rect x="523.047619047619" y="316.15384615384613" width="6.904761904761905" height="23.846153846153847" fill="#0f766e" rx="2"/>
<text x="526.5" y="370" transform="rotate(-45 526.5,370)" text-anchor="middle" font-size="8" fill="#334155">09/15</text>
<text x="526.5" y="312" text-anchor="middle" font-size="9" fill="#334155">6</text>
<rect x="531.952380952381" y="336.02564102564105" width="6.904761904761905" height="3.974358974358974" fill="#0f766e" rx="2"/>
<text x="535.4047619047619" y="370" transform="rotate(-45 535.4047619047619,370)" text-anchor="middle" font-size="8" fill="#334155">09/16</text>
<text x="535.4047619047619" y="332" text-anchor="middle" font-size="9" fill="#334155">1</text>
<rect x="540.8571428571429" y="316.15384615384613" width="6.904761904761905" height="23.846153846153847" fill="#0f766e" rx="2"/>
<text x="544.3095238095239" y="370" transform="rotate(-45 544.3095238095239,370)" text-anchor="middle" font-size="8" fill="#334155">09/17</text>
<text x="544.3095238095239" y="312" text-anchor="middle" font-size="9" fill="#334155">6</text>
<rect x="549.7619047619048" y="312.1794871794872" width="6.904761904761905" height="27.82051282051282" fill="#0f766e" rx="2"/>
<text x="553.2142857142858" y="370" transform="rotate(-45 553.2142857142858,370)" text-anchor="middle" font-size="8" fill="#334155">09/19</text>
<text x="553.2142857142858" y="308" text-anchor="middle" font-size="9" fill="#334155">7</text>
<rect x="558.6666666666667" y="336.02564102564105" width="6.904761904761905" height="3.974358974358974" fill="#0f766e" rx="2"/>
<text x="562.1190476190477" y="370" transform="rotate(-45 562.1190476190477,370)" text-anchor="middle" font-size="8" fill="#334155">09/20</text>
<text x="562.1190476190477" y="332" text-anchor="middle" font-size="9" fill="#334155">1</text>
<rect x="567.5714285714287" y="336.02564102564105" width="6.904761904761905" height="3.974358974358974" fill="#0f766e" rx="2"/>
<text x="571.0238095238096" y="370" transform="rotate(-45 571.0238095238096,370)" text-anchor="middle" font-size="8" fill="#334155">09/21</text>
<text x="571.0238095238096" y="332" text-anchor="middle" font-size="9" fill="#334155">1</text>
<rect x="576.4761904761905" y="316.15384615384613" width="6.904761904761905" height="23.846153846153847" fill="#0f766e" rx="2"/>
<text x="579.9285714285714" y="370" transform="rotate(-45 579.9285714285714,370)" text-anchor="middle" font-size="8" fill="#334155">09/22</text>
<text x="579.9285714285714" y="312" text-anchor="middle" font-size="9" fill="#334155">6</text>
<rect x="585.3809523809524" y="328.0769230769231" width="6.904761904761905" height="11.923076923076923" fill="#0f766e" rx="2"/>
<text x="588.8333333333334" y="370" transform="rotate(-45 588.8333333333334,370)" text-anchor="middle" font-size="8" fill="#334155">09/23</text>
<text x="588.8333333333334" y="324" text-anchor="middle" font-size="9" fill="#334155">3</text>
<rect x="594.2857142857143" y="336.02564102564105" width="6.904761904761905" height="3.974358974358974" fill="#0f766e" rx="2"/>
<text x="597.7380952380953" y="370" transform="rotate(-45 597.7380952380953,370)" text-anchor="middle" font-size="8" fill="#334155">09/24</text>
<text x="597.7380952380953" y="332" text-anchor="middle" font-size="9" fill="#334155">1</text>
<rect x="603.1904761904763" y="324.1025641025641" width="6.904761904761905" height="15.897435897435896" fill="#0f766e" rx="2"/>
<text x="606.6428571428572" y="370" transform="rotate(-45 606.6428571428572,370)" text-anchor="middle" font-size="8" fill="#334155">09/25</text>
<text x="606.6428571428572" y="320" text-anchor="middle" font-size="9" fill="#334155">4</text>
<rect x="612.0952380952381" y="296.28205128205127" width="6.904761904761905" height="43.717948717948715" fill="#0f766e" rx="2"/>
<text x="615.547619047619" y="370" transform="rotate(-45 615.547619047619,370)" text-anchor="middle" font-size="8" fill="#334155">09/26</text>
<text x="615.547619047619" y="292" text-anchor="middle" font-size="9" fill="#334155">11</text>
<rect x="621.0" y="324.1025641025641" width="6.904761904761905" height="15.897435897435896" fill="#0f766e" rx="2"/>
<text x="624.452380952381" y="370" transform="rotate(-45 624.452380952381,370)" text-anchor="middle" font-size="8" fill="#334155">09/29</text>
<text x="624.452380952381" y="320" text-anchor="middle" font-size="9" fill="#334155">4</text>
<rect x="629.9047619047619" y="328.0769230769231" width="6.904761904761905" height="11.923076923076923" fill="#0f766e" rx="2"/>
<text x="633.3571428571429" y="370" transform="rotate(-45 633.3571428571429,370)" text-anchor="middle" font-size="8" fill="#334155">10/01</text>
<text x="633.3571428571429" y="324" text-anchor="middle" font-size="9" fill="#334155">3</text>
<rect x="638.8095238095239" y="332.05128205128204" width="6.904761904761905" height="7.948717948717948" fill="#0f766e" rx="2"/>
<text x="642.2619047619048" y="370" transform="rotate(-45 642.2619047619048,370)" text-anchor="middle" font-size="8" fill="#334155">10/02</text>
<text x="642.2619047619048" y="328" text-anchor="middle" font-size="9" fill="#334155">2</text>
<rect x="647.7142857142858" y="336.02564102564105" width="6.904761904761905" height="3.974358974358974" fill="#0f766e" rx="2"/>
<text x="651.1666666666667" y="370" transform="rotate(-45 651.1666666666667,370)" text-anchor="middle" font-size="8" fill="#334155">10/03</text>
<text x="651.1666666666667" y="332" text-anchor="middle" font-size="9" fill="#334155">1</text>
<rect x="656.6190476190476" y="336.02564102564105" width="6.904761904761905" height="3.974358974358974" fill="#0f766e" rx="2"/>
<text x="660.0714285714286" y="370" transform="rotate(-45 660.0714285714286,370)" text-anchor="middle" font-size="8" fill="#334155">10/04</text>
<text x="660.0714285714286" y="332" text-anchor="middle" font-size="9" fill="#334155">1</text>
<rect x="665.5238095238095" y="332.05128205128204" width="6.904761904761905" height="7.948717948717948" fill="#0f766e" rx="2"/>
<text x="668.9761904761905" y="370" transform="rotate(-45 668.9761904761905,370)" text-anchor="middle" font-size="8" fill="#334155">10/05</text>
<text x="668.9761904761905" y="328" text-anchor="middle" font-size="9" fill="#334155">2</text>
<rect x="674.4285714285714" y="300.2564102564103" width="6.904761904761905" height="39.74358974358974" fill="#0f766e" rx="2"/>
<text x="677.8809523809524" y="370" transform="rotate(-45 677.8809523809524,370)" text-anchor="middle" font-size="8" fill="#334155">10/06</text>
<text x="677.8809523809524" y="296" text-anchor="middle" font-size="9" fill="#334155">10</text>
<rect x="683.3333333333334" y="328.0769230769231" width="6.904761904761905" height="11.923076923076923" fill="#0f766e" rx="2"/>
<text x="686.7857142857143" y="370" transform="rotate(-45 686.7857142857143,370)" text-anchor="middle" font-size="8" fill="#334155">10/07</text>
<text x="686.7857142857143" y="324" text-anchor="middle" font-size="9" fill="#334155">3</text>
<rect x="692.2380952380953" y="328.0769230769231" width="6.904761904761905" height="11.923076923076923" fill="#0f766e" rx="2"/>
<text x="695.6904761904763" y="370" transform="rotate(-45 695.6904761904763,370)" text-anchor="middle" font-size="8" fill="#334155">10/08</text>
<text x="695.6904761904763" y="324" text-anchor="middle" font-size="9" fill="#334155">3</text>
<rect x="701.1428571428571" y="288.3333333333333" width="6.904761904761905" height="51.666666666666664" fill="#0f766e" rx="2"/>
<text x="704.5952380952381" y="370" transform="rotate(-45 704.5952380952381,370)" text-anchor="middle" font-size="8" fill="#334155">10/27</text>
<text x="704.5952380952381" y="284" text-anchor="middle" font-size="9" fill="#334155">13</text>
<rect x="710.047619047619" y="324.1025641025641" width="6.904761904761905" height="15.897435897435896" fill="#0f766e" rx="2"/>
<text x="713.5" y="370" transform="rotate(-45 713.5,370)" text-anchor="middle" font-size="8" fill="#334155">10/28</text>
<text x="713.5" y="320" text-anchor="middle" font-size="9" fill="#334155">4</text>
<rect x="718.952380952381" y="276.4102564102564" width="6.904761904761905" height="63.589743589743584" fill="#0f766e" rx="2"/>
<text x="722.4047619047619" y="370" transform="rotate(-45 722.4047619047619,370)" text-anchor="middle" font-size="8" fill="#334155">10/29</text>
<text x="722.4047619047619" y="272" text-anchor="middle" font-size="9" fill="#334155">16</text>
<rect x="727.8571428571429" y="336.02564102564105" width="6.904761904761905" height="3.974358974358974" fill="#0f766e" rx="2"/>
<text x="731.3095238095239" y="370" transform="rotate(-45 731.3095238095239,370)" text-anchor="middle" font-size="8" fill="#334155">11/03</text>
<text x="731.3095238095239" y="332" text-anchor="middle" font-size="9" fill="#334155">1</text>
<rect x="736.7619047619048" y="336.02564102564105" width="6.904761904761905" height="3.974358974358974" fill="#0f766e" rx="2"/>
<text x="740.2142857142858" y="370" transform="rotate(-45 740.2142857142858,370)" text-anchor="middle" font-size="8" fill="#334155">11/10</text>
<text x="740.2142857142858" y="332" text-anchor="middle" font-size="9" fill="#334155">1</text>
<rect x="745.6666666666667" y="328.0769230769231" width="6.904761904761905" height="11.923076923076923" fill="#0f766e" rx="2"/>
<text x="749.1190476190477" y="370" transform="rotate(-45 749.1190476190477,370)" text-anchor="middle" font-size="8" fill="#334155">11/11</text>
<text x="749.1190476190477" y="324" text-anchor="middle" font-size="9" fill="#334155">3</text>
<rect x="754.5714285714286" y="332.05128205128204" width="6.904761904761905" height="7.948717948717948" fill="#0f766e" rx="2"/>
<text x="758.0238095238095" y="370" transform="rotate(-45 758.0238095238095,370)" text-anchor="middle" font-size="8" fill="#334155">11/14</text>
<text x="758.0238095238095" y="328" text-anchor="middle" font-size="9" fill="#334155">2</text>
<rect x="763.4761904761905" y="332.05128205128204" width="6.904761904761905" height="7.948717948717948" fill="#0f766e" rx="2"/>
<text x="766.9285714285714" y="370" transform="rotate(-45 766.9285714285714,370)" text-anchor="middle" font-size="8" fill="#334155">12/10</text>
<text x="766.9285714285714" y="328" text-anchor="middle" font-size="9" fill="#334155">2</text>
<rect x="772.3809523809524" y="332.05128205128204" width="6.904761904761905" height="7.948717948717948" fill="#0f766e" rx="2"/>
<text x="775.8333333333334" y="370" transform="rotate(-45 775.8333333333334,370)" text-anchor="middle" font-size="8" fill="#334155">12/15</text>
<text x="775.8333333333334" y="328" text-anchor="middle" font-size="9" fill="#334155">2</text>
<rect x="781.2857142857143" y="336.02564102564105" width="6.904761904761905" height="3.974358974358974" fill="#0f766e" rx="2"/>
<text x="784.7380952380953" y="370" transform="rotate(-45 784.7380952380953,370)" text-anchor="middle" font-size="8" fill="#334155">12/16</text>
<text x="784.7380952380953" y="332" text-anchor="middle" font-size="9" fill="#334155">1</text>
<rect x="790.1904761904763" y="312.1794871794872" width="6.904761904761905" height="27.82051282051282" fill="#0f766e" rx="2"/>
<text x="793.6428571428572" y="370" transform="rotate(-45 793.6428571428572,370)" text-anchor="middle" font-size="8" fill="#334155">12/21</text>
<text x="793.6428571428572" y="308" text-anchor="middle" font-size="9" fill="#334155">7</text>
<rect x="799.0952380952381" y="308.20512820512823" width="6.904761904761905" height="31.794871794871792" fill="#0f766e" rx="2"/>
<text x="802.547619047619" y="370" transform="rotate(-45 802.547619047619,370)" text-anchor="middle" font-size="8" fill="#334155">12/22</text>
<text x="802.547619047619" y="304" text-anchor="middle" font-size="9" fill="#334155">8</text>
<rect x="808.0" y="336.02564102564105" width="6.904761904761905" height="3.974358974358974" fill="#0f766e" rx="2"/>
<text x="811.452380952381" y="370" transform="rotate(-45 811.452380952381,370)" text-anchor="middle" font-size="8" fill="#334155">12/26</text>
<text x="811.452380952381" y="332" text-anchor="middle" font-size="9" fill="#334155">1</text>
<rect x="816.9047619047619" y="308.20512820512823" width="6.904761904761905" height="31.794871794871792" fill="#0f766e" rx="2"/>
<text x="820.3571428571429" y="370" transform="rotate(-45 820.3571428571429,370)" text-anchor="middle" font-size="8" fill="#334155">12/27</text>
<text x="820.3571428571429" y="304" text-anchor="middle" font-size="9" fill="#334155">8</text>
<rect x="825.8095238095239" y="312.1794871794872" width="6.904761904761905" height="27.82051282051282" fill="#0f766e" rx="2"/>
<text x="829.2619047619048" y="370" transform="rotate(-45 829.2619047619048,370)" text-anchor="middle" font-size="8" fill="#334155">12/28</text>
<text x="829.2619047619048" y="308" text-anchor="middle" font-size="9" fill="#334155">7</text>
<rect x="834.7142857142858" y="324.1025641025641" width="6.904761904761905" height="15.897435897435896" fill="#0f766e" rx="2"/>
<text x="838.1666666666667" y="370" transform="rotate(-45 838.1666666666667,370)" text-anchor="middle" font-size="8" fill="#334155">12/29</text>
<text x="838.1666666666667" y="320" text-anchor="middle" font-size="9" fill="#334155">4</text>
<rect x="843.6190476190477" y="324.1025641025641" width="6.904761904761905" height="15.897435897435896" fill="#0f766e" rx="2"/>
<text x="847.0714285714287" y="370" transform="rotate(-45 847.0714285714287,370)" text-anchor="middle" font-size="8" fill="#334155">12/30</text>
<text x="847.0714285714287" y="320" text-anchor="middle" font-size="9" fill="#334155">4</text>
<rect x="852.5238095238095" y="312.1794871794872" width="6.904761904761905" height="27.82051282051282" fill="#0f766e" rx="2"/>
<text x="855.9761904761905" y="370" transform="rotate(-45 855.9761904761905,370)" text-anchor="middle" font-size="8" fill="#334155">01/04</text>
<text x="855.9761904761905" y="308" text-anchor="middle" font-size="9" fill="#334155">7</text>
<rect x="861.4285714285714" y="316.15384615384613" width="6.904761904761905" height="23.846153846153847" fill="#0f766e" rx="2"/>
<text x="864.8809523809524" y="370" transform="rotate(-45 864.8809523809524,370)" text-anchor="middle" font-size="8" fill="#334155">01/05</text>
<text x="864.8809523809524" y="312" text-anchor="middle" font-size="9" fill="#334155">6</text>
<rect x="870.3333333333334" y="304.2307692307692" width="6.904761904761905" height="35.769230769230774" fill="#0f766e" rx="2"/>
<text x="873.7857142857143" y="370" transform="rotate(-45 873.7857142857143,370)" text-anchor="middle" font-size="8" fill="#334155">01/06</text>
<text x="873.7857142857143" y="300" text-anchor="middle" font-size="9" fill="#334155">9</text>
<rect x="879.2380952380953" y="308.20512820512823" width="6.904761904761905" height="31.794871794871792" fill="#0f766e" rx="2"/>
<text x="882.6904761904763" y="370" transform="rotate(-45 882.6904761904763,370)" text-anchor="middle" font-size="8" fill="#334155">01/07</text>
<text x="882.6904761904763" y="304" text-anchor="middle" font-size="9" fill="#334155">8</text>
<rect x="888.1428571428572" y="304.2307692307692" width="6.904761904761905" height="35.769230769230774" fill="#0f766e" rx="2"/>
<text x="891.5952380952382" y="370" transform="rotate(-45 891.5952380952382,370)" text-anchor="middle" font-size="8" fill="#334155">01/10</text>
<text x="891.5952380952382" y="300" text-anchor="middle" font-size="9" fill="#334155">9</text>
<rect x="897.047619047619" y="252.56410256410257" width="6.904761904761905" height="87.43589743589743" fill="#0f766e" rx="2"/>
<text x="900.5" y="370" transform="rotate(-45 900.5,370)" text-anchor="middle" font-size="8" fill="#334155">01/11</text>
<text x="900.5" y="248" text-anchor="middle" font-size="9" fill="#334155">22</text>
<rect x="905.952380952381" y="292.3076923076923" width="6.904761904761905" height="47.69230769230769" fill="#0f766e" rx="2"/>
<text x="909.4047619047619" y="370" transform="rotate(-45 909.4047619047619,370)" text-anchor="middle" font-size="8" fill="#334155">01/20</text>
<text x="909.4047619047619" y="288" text-anchor="middle" font-size="9" fill="#334155">12</text>
<rect x="914.8571428571429" y="288.3333333333333" width="6.904761904761905" height="51.666666666666664" fill="#0f766e" rx="2"/>
<text x="918.3095238095239" y="370" transform="rotate(-45 918.3095238095239,370)" text-anchor="middle" font-size="8" fill="#334155">01/21</text>
<text x="918.3095238095239" y="284" text-anchor="middle" font-size="9" fill="#334155">13</text>
<rect x="923.7619047619048" y="332.05128205128204" width="6.904761904761905" height="7.948717948717948" fill="#0f766e" rx="2"/>
<text x="927.2142857142858" y="370" transform="rotate(-45 927.2142857142858,370)" text-anchor="middle" font-size="8" fill="#334155">01/22</text>
<text x="927.2142857142858" y="328" text-anchor="middle" font-size="9" fill="#334155">2</text>
<rect x="932.6666666666667" y="292.3076923076923" width="6.904761904761905" height="47.69230769230769" fill="#0f766e" rx="2"/>
<text x="936.1190476190477" y="370" transform="rotate(-45 936.1190476190477,370)" text-anchor="middle" font-size="8" fill="#334155">01/23</text>
<text x="936.1190476190477" y="288" text-anchor="middle" font-size="9" fill="#334155">12</text>
<rect x="941.5714285714286" y="200.89743589743588" width="6.904761904761905" height="139.10256410256412" fill="#0f766e" rx="2"/>
<text x="945.0238095238095" y="370" transform="rotate(-45 945.0238095238095,370)" text-anchor="middle" font-size="8" fill="#334155">01/24</text>
<text x="945.0238095238095" y="196" text-anchor="middle" font-size="9" fill="#334155">35</text>
<rect x="950.4761904761905" y="141.28205128205127" width="6.904761904761905" height="198.71794871794873" fill="#0f766e" rx="2"/>
<text x="953.9285714285714" y="370" transform="rotate(-45 953.9285714285714,370)" text-anchor="middle" font-size="8" fill="#334155">01/25</text>
<text x="953.9285714285714" y="137" text-anchor="middle" font-size="9" fill="#334155">50</text>
<rect x="959.3809523809524" y="320.12820512820514" width="6.904761904761905" height="19.87179487179487" fill="#0f766e" rx="2"/>
<text x="962.8333333333334" y="370" transform="rotate(-45 962.8333333333334,370)" text-anchor="middle" font-size="8" fill="#334155">01/26</text>
<text x="962.8333333333334" y="316" text-anchor="middle" font-size="9" fill="#334155">5</text>
<rect x="968.2857142857143" y="336.02564102564105" width="6.904761904761905" height="3.974358974358974" fill="#0f766e" rx="2"/>
<text x="971.7380952380953" y="370" transform="rotate(-45 971.7380952380953,370)" text-anchor="middle" font-size="8" fill="#334155">01/29</text>
<text x="971.7380952380953" y="332" text-anchor="middle" font-size="9" fill="#334155">1</text>
<rect x="977.1904761904763" y="272.43589743589746" width="6.904761904761905" height="67.56410256410257" fill="#0f766e" rx="2"/>
<text x="980.6428571428572" y="370" transform="rotate(-45 980.6428571428572,370)" text-anchor="middle" font-size="8" fill="#334155">01/30</text>
<text x="980.6428571428572" y="268" text-anchor="middle" font-size="9" fill="#334155">17</text>
<rect x="986.0952380952381" y="288.3333333333333" width="6.904761904761905" height="51.666666666666664" fill="#0f766e" rx="2"/>
<text x="989.547619047619" y="370" transform="rotate(-45 989.547619047619,370)" text-anchor="middle" font-size="8" fill="#334155">01/31</text>
<text x="989.547619047619" y="284" text-anchor="middle" font-size="9" fill="#334155">13</text>
<rect x="995.0" y="260.51282051282055" width="6.904761904761905" height="79.48717948717947" fill="#0f766e" rx="2"/>
<text x="998.452380952381" y="370" transform="rotate(-45 998.452380952381,370)" text-anchor="middle" font-size="8" fill="#334155">02/01</text>
<text x="998.452380952381" y="256" text-anchor="middle" font-size="9" fill="#334155">20</text>
<rect x="1003.9047619047619" y="236.66666666666669" width="6.904761904761905" height="103.33333333333333" fill="#0f766e" rx="2"/>
<text x="1007.3571428571429" y="370" transform="rotate(-45 1007.3571428571429,370)" text-anchor="middle" font-size="8" fill="#334155">02/02</text>
<text x="1007.3571428571429" y="232" text-anchor="middle" font-size="9" fill="#334155">26</text>
<rect x="1012.8095238095239" y="157.17948717948718" width="6.904761904761905" height="182.82051282051282" fill="#0f766e" rx="2"/>
<text x="1016.2619047619048" y="370" transform="rotate(-45 1016.2619047619048,370)" text-anchor="middle" font-size="8" fill="#334155">02/03</text>
<text x="1016.2619047619048" y="153" text-anchor="middle" font-size="9" fill="#334155">46</text>
<rect x="1021.7142857142858" y="157.17948717948718" width="6.904761904761905" height="182.82051282051282" fill="#0f766e" rx="2"/>
<text x="1025.1666666666667" y="370" transform="rotate(-45 1025.1666666666667,370)" text-anchor="middle" font-size="8" fill="#334155">02/04</text>
<text x="1025.1666666666667" y="153" text-anchor="middle" font-size="9" fill="#334155">46</text>
<rect x="1030.6190476190477" y="208.84615384615384" width="6.904761904761905" height="131.15384615384616" fill="#0f766e" rx="2"/>
<text x="1034.0714285714287" y="370" transform="rotate(-45 1034.0714285714287,370)" text-anchor="middle" font-size="8" fill="#334155">02/05</text>
<text x="1034.0714285714287" y="204" text-anchor="middle" font-size="9" fill="#334155">33</text>
<rect x="1039.5238095238096" y="268.46153846153845" width="6.904761904761905" height="71.53846153846155" fill="#0f766e" rx="2"/>
<text x="1042.9761904761906" y="370" transform="rotate(-45 1042.9761904761906,370)" text-anchor="middle" font-size="8" fill="#334155">02/06</text>
<text x="1042.9761904761906" y="264" text-anchor="middle" font-size="9" fill="#334155">18</text>
<rect x="1048.4285714285716" y="272.43589743589746" width="6.904761904761905" height="67.56410256410257" fill="#0f766e" rx="2"/>
<text x="1051.8809523809525" y="370" transform="rotate(-45 1051.8809523809525,370)" text-anchor="middle" font-size="8" fill="#334155">02/07</text>
<text x="1051.8809523809525" y="268" text-anchor="middle" font-size="9" fill="#334155">17</text>
<rect x="1057.3333333333335" y="328.0769230769231" width="6.904761904761905" height="11.923076923076923" fill="#0f766e" rx="2"/>
<text x="1060.7857142857144" y="370" transform="rotate(-45 1060.7857142857144,370)" text-anchor="middle" font-size="8" fill="#334155">02/08</text>
<text x="1060.7857142857144" y="324" text-anchor="middle" font-size="9" fill="#334155">3</text>
<rect x="1066.2380952380954" y="288.3333333333333" width="6.904761904761905" height="51.666666666666664" fill="#0f766e" rx="2"/>
<text x="1069.6904761904764" y="370" transform="rotate(-45 1069.6904761904764,370)" text-anchor="middle" font-size="8" fill="#334155">02/09</text>
<text x="1069.6904761904764" y="284" text-anchor="middle" font-size="9" fill="#334155">13</text>
<rect x="1075.1428571428573" y="53.84615384615381" width="6.904761904761905" height="286.1538461538462" fill="#0f766e" rx="2"/>
<text x="1078.5952380952383" y="370" transform="rotate(-45 1078.5952380952383,370)" text-anchor="middle" font-size="8" fill="#334155">02/10</text>
<text x="1078.5952380952383" y="49" text-anchor="middle" font-size="9" fill="#334155">72</text>
<rect x="1084.047619047619" y="260.51282051282055" width="6.904761904761905" height="79.48717948717947" fill="#0f766e" rx="2"/>
<text x="1087.5" y="370" transform="rotate(-45 1087.5,370)" text-anchor="middle" font-size="8" fill="#334155">02/11</text>
<text x="1087.5" y="256" text-anchor="middle" font-size="9" fill="#334155">20</text>
<rect x="1092.952380952381" y="268.46153846153845" width="6.904761904761905" height="71.53846153846155" fill="#0f766e" rx="2"/>
<text x="1096.404761904762" y="370" transform="rotate(-45 1096.404761904762,370)" text-anchor="middle" font-size="8" fill="#334155">02/12</text>
<text x="1096.404761904762" y="264" text-anchor="middle" font-size="9" fill="#334155">18</text>
<rect x="1101.857142857143" y="220.76923076923077" width="6.904761904761905" height="119.23076923076924" fill="#0f766e" rx="2"/>
<text x="1105.3095238095239" y="370" transform="rotate(-45 1105.3095238095239,370)" text-anchor="middle" font-size="8" fill="#334155">02/13</text>
<text x="1105.3095238095239" y="216" text-anchor="middle" font-size="9" fill="#334155">30</text>
<rect x="1110.7619047619048" y="336.02564102564105" width="6.904761904761905" height="3.974358974358974" fill="#0f766e" rx="2"/>
<text x="1114.2142857142858" y="370" transform="rotate(-45 1114.2142857142858,370)" text-anchor="middle" font-size="8" fill="#334155">02/14</text>
<text x="1114.2142857142858" y="332" text-anchor="middle" font-size="9" fill="#334155">1</text>
<rect x="1119.6666666666667" y="308.20512820512823" width="6.904761904761905" height="31.794871794871792" fill="#0f766e" rx="2"/>
<text x="1123.1190476190477" y="370" transform="rotate(-45 1123.1190476190477,370)" text-anchor="middle" font-size="8" fill="#334155">02/16</text>
<text x="1123.1190476190477" y="304" text-anchor="middle" font-size="9" fill="#334155">8</text>
<rect x="1128.5714285714287" y="224.74358974358972" width="6.904761904761905" height="115.25641025641026" fill="#0f766e" rx="2"/>
<text x="1132.0238095238096" y="370" transform="rotate(-45 1132.0238095238096,370)" text-anchor="middle" font-size="8" fill="#334155">02/17</text>
<text x="1132.0238095238096" y="220" text-anchor="middle" font-size="9" fill="#334155">29</text>
<rect x="1137.4761904761906" y="161.15384615384616" width="6.904761904761905" height="178.84615384615384" fill="#0f766e" rx="2"/>
<text x="1140.9285714285716" y="370" transform="rotate(-45 1140.9285714285716,370)" text-anchor="middle" font-size="8" fill="#334155">02/18</text>
<text x="1140.9285714285716" y="157" text-anchor="middle" font-size="9" fill="#334155">45</text>
<rect x="1146.3809523809525" y="248.5897435897436" width="6.904761904761905" height="91.41025641025641" fill="#0f766e" rx="2"/>
<text x="1149.8333333333335" y="370" transform="rotate(-45 1149.8333333333335,370)" text-anchor="middle" font-size="8" fill="#334155">02/19</text>
<text x="1149.8333333333335" y="244" text-anchor="middle" font-size="9" fill="#334155">23</text>
<rect x="1155.2857142857142" y="324.1025641025641" width="6.904761904761905" height="15.897435897435896" fill="#0f766e" rx="2"/>
<text x="1158.7380952380952" y="370" transform="rotate(-45 1158.7380952380952,370)" text-anchor="middle" font-size="8" fill="#334155">02/20</text>
<text x="1158.7380952380952" y="320" text-anchor="middle" font-size="9" fill="#334155">4</text>
<rect x="1164.1904761904761" y="320.12820512820514" width="6.904761904761905" height="19.87179487179487" fill="#0f766e" rx="2"/>
<text x="1167.642857142857" y="370" transform="rotate(-45 1167.642857142857,370)" text-anchor="middle" font-size="8" fill="#334155">02/21</text>
<text x="1167.642857142857" y="316" text-anchor="middle" font-size="9" fill="#334155">5</text>
<rect x="1173.095238095238" y="332.05128205128204" width="6.904761904761905" height="7.948717948717948" fill="#0f766e" rx="2"/>
<text x="1176.547619047619" y="370" transform="rotate(-45 1176.547619047619,370)" text-anchor="middle" font-size="8" fill="#334155">02/22</text>
<text x="1176.547619047619" y="328" text-anchor="middle" font-size="9" fill="#334155">2</text>
</g>
</svg>