<svg xmlns="http://www.w3.org/2000/svg" viewBox="0 0 1200 420">
<rect x="0" y="0" width="1200" height="420" fill="#f8fafc" />
<text x="600" y="22" text-anchor="middle" font-size="16" font-weight="600" fill="#0f172a">Cumulative Day docc Files (2026-02-22 - 2026-02-23)</text>
<line x1="60" y1="340" x2="1180" y2="340" stroke="#cbd5e1" stroke-width="1" />
<g font-family="monospace" font-size="11" fill="#1e293b">
<line x1="60" y1="340.0" x2="1180" y2="340.0" stroke="#e2e8f0" stroke-width="1" />
<text x="52" y="343.0" text-anchor="end">0</text>
<line x1="60" y1="263.39080459770116" x2="1180" y2="263.39080459770116" stroke="#e2e8f0" stroke-width="1" />
<text x="52" y="266.39080459770116" text-anchor="end">43</text>
<line x1="60" y1="186.7816091954023" x2="1180" y2="186.7816091954023" stroke="#e2e8f0" stroke-width="1" />
<text x="52" y="189.7816091954023" text-anchor="end">86</text>
<line x1="60" y1="110.17241379310343" x2="1180" y2="110.17241379310343" stroke="#e2e8f0" stroke-width="1" />
<text x="52" y="113.17241379310343" text-anchor="end">129</text>
<line x1="60" y1="33.56321839080459" x2="1180" y2="33.56321839080459" stroke="#e2e8f0" stroke-width="1" />
<text x="52" y="36.56321839080459" text-anchor="end">172</text>
</g>
<g font-family="monospace">
<rect x="60.0" y="30.0" width="559.0" height="310.0" fill="#0ea5e9" rx="2"/>
<text x="339.5" y="370" transform="rotate(-45 339.5,370)" text-anchor="middle" font-size="8" fill="#334155">2026-02-22</text>
<text x="339.5" y="26" text-anchor="middle" font-size="9" fill="#334155">174</text>
<rect x="621.0" y="30.0" width="559.0" height="310.0" fill="#0ea5e9" rx="2"/>
<text x="900.5" y="370" transform="rotate(-45 900.5,370)" text-anchor="middle" font-size="8" fill="#334155">2026-02-23</text>
<text x="900.5" y="26" text-anchor="middle" font-size="9" fill="#334155">174</text>
</g>
</svg>