<svg xmlns="http://www.w3.org/2000/svg" viewBox="0 0 900 420">
<rect x="0" y="0" width="900" height="420" fill="#f8fafc" />
<text x="450" y="22" text-anchor="middle" font-size="16" font-weight="600" fill="#0f172a">Week Commit Activity (2026-01-01 - 2026-02-22)</text>
<line x1="60" y1="340" x2="880" y2="340" stroke="#cbd5e1" stroke-width="1" />
<g font-family="monospace" font-size="11" fill="#1e293b">
<line x1="60" y1="340.0" x2="880" y2="340.0" stroke="#e2e8f0" stroke-width="1" />
<text x="52" y="343.0" text-anchor="end">0</text>
<line x1="60" y1="262.8215767634855" x2="880" y2="262.8215767634855" stroke="#e2e8f0" stroke-width="1" />
<text x="52" y="265.8215767634855" text-anchor="end">60</text>
<line x1="60" y1="185.64315352697096" x2="880" y2="185.64315352697096" stroke="#e2e8f0" stroke-width="1" />
<text x="52" y="188.64315352697096" text-anchor="end">120</text>
<line x1="60" y1="108.46473029045643" x2="880" y2="108.46473029045643" stroke="#e2e8f0" stroke-width="1" />
<text x="52" y="111.46473029045643" text-anchor="end">180</text>
<line x1="60" y1="31.286307053941925" x2="880" y2="31.286307053941925" stroke="#e2e8f0" stroke-width="1" />
<text x="52" y="34.286307053941925" text-anchor="end">240</text>
</g>
<g font-family="monospace">
<rect x="60.0" y="333.56846473029043" width="110.28571428571429" height="6.431535269709543" fill="#2f80ed" rx="2"/>
<text x="115.14285714285714" y="370" transform="rotate(-45 115.14285714285714,370)" text-anchor="middle" font-size="10" fill="#334155">2025-12-29 .. 2026-01-04</text>
<text x="115.14285714285714" y="327" text-anchor="middle" font-size="10" fill="#334155">5</text>
<rect x="178.28571428571428" y="238.3817427385892" width="110.28571428571429" height="101.61825726141079" fill="#2f80ed" rx="2"/>
<text x="233.42857142857142" y="370" transform="rotate(-45 233.42857142857142,370)" text-anchor="middle" font-size="10" fill="#334155">2026-01-05 .. 2026-01-11</text>
<text x="233.42857142857142" y="232" text-anchor="middle" font-size="10" fill="#334155">79</text>
<rect x="296.57142857142856" y="274.39834024896265" width="110.28571428571429" height="65.60165975103735" fill="#2f80ed" rx="2"/>
<text x="351.7142857142857" y="370" transform="rotate(-45 351.7142857142857,370)" text-anchor="middle" font-size="10" fill="#334155">2026-01-19 .. 2026-01-25</text>
<text x="351.7142857142857" y="268" text-anchor="middle" font-size="10" fill="#334155">51</text>
<rect x="414.8571428571429" y="253.81742738589213" width="110.28571428571429" height="86.18257261410788" fill="#2f80ed" rx="2"/>
<text x="470.00000000000006" y="370" transform="rotate(-45 470.00000000000006,370)" text-anchor="middle" font-size="10" fill="#334155">2026-01-26 .. 2026-02-01</text>
<text x="470.00000000000006" y="247" text-anchor="middle" font-size="10" fill="#334155">67</text>
<rect x="533.1428571428571" y="161.2033195020747" width="110.28571428571429" height="178.7966804979253" fill="#2f80ed" rx="2"/>
<text x="588.2857142857142" y="370" transform="rotate(-45 588.2857142857142,370)" text-anchor="middle" font-size="10" fill="#334155">2026-02-02 .. 2026-02-08</text>
<text x="588.2857142857142" y="155" text-anchor="middle" font-size="10" fill="#334155">139</text>
<rect x="651.4285714285714" y="30.0" width="110.28571428571429" height="310.0" fill="#2f80ed" rx="2"/>
<text x="706.5714285714286" y="370" transform="rotate(-45 706.5714285714286,370)" text-anchor="middle" font-size="10" fill="#334155">2026-02-09 .. 2026-02-15</text>
<text x="706.5714285714286" y="24" text-anchor="middle" font-size="10" fill="#334155">241</text>
<rect x="769.7142857142858" y="41.57676348547716" width="110.28571428571429" height="298.42323651452284" fill="#2f80ed" rx="2"/>
<text x="824.8571428571429" y="370" transform="rotate(-45 824.8571428571429,370)" text-anchor="middle" font-size="10" fill="#334155">2026-02-16 .. 2026-02-22</text>
<text x="824.8571428571429" y="35" text-anchor="middle" font-size="10" fill="#334155">232</text>
</g>
</svg>