<svg xmlns="http://www.w3.org/2000/svg" viewBox="0 0 1200 420">
<rect x="0" y="0" width="1200" height="420" fill="#f8fafc" />
<text x="600" y="22" text-anchor="middle" font-size="16" font-weight="600" fill="#0f172a">Daily Commit Activity (07/01 - 02/22)</text>
<line x1="60" y1="340" x2="1180" y2="340" stroke="#cbd5e1" stroke-width="1" />
<g font-family="monospace" font-size="11" fill="#1e293b">
<line x1="60" y1="340.0" x2="1180" y2="340.0" stroke="#e2e8f0" stroke-width="1" />
<text x="52" y="343.0" text-anchor="end">0</text>
<line x1="60" y1="262.5229765787133" x2="1180" y2="262.5229765787133" stroke="#e2e8f0" stroke-width="1" />
<text x="52" y="265.5229765787133" text-anchor="end">1686</text>
<line x1="60" y1="185.04595315742662" x2="1180" y2="185.04595315742662" stroke="#e2e8f0" stroke-width="1" />
<text x="52" y="188.04595315742662" text-anchor="end">3372</text>
<line x1="60" y1="107.56892973613995" x2="1180" y2="107.56892973613995" stroke="#e2e8f0" stroke-width="1" />
<text x="52" y="110.56892973613995" text-anchor="end">5058</text>
<line x1="60" y1="30.091906314853247" x2="1180" y2="30.091906314853247" stroke="#e2e8f0" stroke-width="1" />
<text x="52" y="33.09190631485325" text-anchor="end">6744</text>
</g>
<g font-family="monospace">
<rect x="60.0" y="333.8422769048325" width="6.904761904761905" height="6.157723095167507" fill="#0f766e" rx="2"/>
<text x="63.45238095238095" y="370" transform="rotate(-45 63.45238095238095,370)" text-anchor="middle" font-size="8" fill="#334155">07/14</text>
<text x="63.45238095238095" y="329" text-anchor="middle" font-size="9" fill="#334155">134</text>
<rect x="68.9047619047619" y="340.0" width="6.904761904761905" height="0.0" fill="#0f766e" rx="2"/>
<text x="72.35714285714285" y="370" transform="rotate(-45 72.35714285714285,370)" text-anchor="middle" font-size="8" fill="#334155">07/17</text>
<text x="72.35714285714285" y="336" text-anchor="middle" font-size="9" fill="#334155">0</text>
<rect x="77.80952380952381" y="338.85117106433444" width="6.904761904761905" height="1.1488289356655796" fill="#0f766e" rx="2"/>
<text x="81.26190476190476" y="370" transform="rotate(-45 81.26190476190476,370)" text-anchor="middle" font-size="8" fill="#334155">07/18</text>
<text x="81.26190476190476" y="334" text-anchor="middle" font-size="9" fill="#334155">25</text>
<rect x="86.71428571428572" y="338.0240142306552" width="6.904761904761905" height="1.975985769344797" fill="#0f766e" rx="2"/>
<text x="90.16666666666667" y="370" transform="rotate(-45 90.16666666666667,370)" text-anchor="middle" font-size="8" fill="#334155">07/19</text>
<text x="90.16666666666667" y="334" text-anchor="middle" font-size="9" fill="#334155">43</text>
<rect x="95.61904761904762" y="339.8161873702935" width="6.904761904761905" height="0.18381262970649273" fill="#0f766e" rx="2"/>
<text x="99.07142857142857" y="370" transform="rotate(-45 99.07142857142857,370)" text-anchor="middle" font-size="8" fill="#334155">07/20</text>
<text x="99.07142857142857" y="335" text-anchor="middle" font-size="9" fill="#334155">4</text>
<rect x="104.52380952380952" y="338.0699673880818" width="6.904761904761905" height="1.9300326119181737" fill="#0f766e" rx="2"/>
<text x="107.97619047619047" y="370" transform="rotate(-45 107.97619047619047,370)" text-anchor="middle" font-size="8" fill="#334155">07/21</text>
<text x="107.97619047619047" y="334" text-anchor="middle" font-size="9" fill="#334155">42</text>
<rect x="113.42857142857143" y="322.9973317521494" width="6.904761904761905" height="17.00266824785058" fill="#0f766e" rx="2"/>
<text x="116.88095238095238" y="370" transform="rotate(-45 116.88095238095238,370)" text-anchor="middle" font-size="8" fill="#334155">07/22</text>
<text x="116.88095238095238" y="318" text-anchor="middle" font-size="9" fill="#334155">370</text>
<rect x="122.33333333333334" y="335.6344500444708" width="6.904761904761905" height="4.365549955529203" fill="#0f766e" rx="2"/>
<text x="125.78571428571429" y="370" transform="rotate(-45 125.78571428571429,370)" text-anchor="middle" font-size="8" fill="#334155">07/23</text>
<text x="125.78571428571429" y="331" text-anchor="middle" font-size="9" fill="#334155">95</text>
<rect x="131.23809523809524" y="338.71331159205454" width="6.904761904761905" height="1.2866884079454493" fill="#0f766e" rx="2"/>
<text x="134.6904761904762" y="370" transform="rotate(-45 134.6904761904762,370)" text-anchor="middle" font-size="8" fill="#334155">07/24</text>
<text x="134.6904761904762" y="334" text-anchor="middle" font-size="9" fill="#334155">28</text>
<rect x="140.14285714285714" y="339.264749481174" width="6.904761904761905" height="0.7352505188259709" fill="#0f766e" rx="2"/>
<text x="143.5952380952381" y="370" transform="rotate(-45 143.5952380952381,370)" text-anchor="middle" font-size="8" fill="#334155">07/25</text>
<text x="143.5952380952381" y="335" text-anchor="middle" font-size="9" fill="#334155">16</text>
<rect x="149.04761904761904" y="337.2428105544026" width="6.904761904761905" height="2.7571894455973913" fill="#0f766e" rx="2"/>
<text x="152.5" y="370" transform="rotate(-45 152.5,370)" text-anchor="middle" font-size="8" fill="#334155">07/26</text>
<text x="152.5" y="333" text-anchor="middle" font-size="9" fill="#334155">60</text>
<rect x="157.95238095238096" y="327.17906907797214" width="6.904761904761905" height="12.820930922027868" fill="#0f766e" rx="2"/>
<text x="161.40476190476193" y="370" transform="rotate(-45 161.40476190476193,370)" text-anchor="middle" font-size="8" fill="#334155">07/27</text>
<text x="161.40476190476193" y="323" text-anchor="middle" font-size="9" fill="#334155">279</text>
<rect x="166.85714285714286" y="338.9430773791877" width="6.904761904761905" height="1.0569226208123332" fill="#0f766e" rx="2"/>
<text x="170.30952380952382" y="370" transform="rotate(-45 170.30952380952382,370)" text-anchor="middle" font-size="8" fill="#334155">07/28</text>
<text x="170.30952380952382" y="334" text-anchor="middle" font-size="9" fill="#334155">23</text>
<rect x="175.76190476190476" y="338.3916394900682" width="6.904761904761905" height="1.6083605099318115" fill="#0f766e" rx="2"/>
<text x="179.21428571428572" y="370" transform="rotate(-45 179.21428571428572,370)" text-anchor="middle" font-size="8" fill="#334155">07/29</text>
<text x="179.21428571428572" y="334" text-anchor="middle" font-size="9" fill="#334155">35</text>
<rect x="184.66666666666669" y="339.49451526830717" width="6.904761904761905" height="0.505484731692855" fill="#0f766e" rx="2"/>
<text x="188.11904761904765" y="370" transform="rotate(-45 188.11904761904765,370)" text-anchor="middle" font-size="8" fill="#334155">07/31</text>
<text x="188.11904761904765" y="335" text-anchor="middle" font-size="9" fill="#334155">11</text>
<rect x="193.57142857142858" y="339.264749481174" width="6.904761904761905" height="0.7352505188259709" fill="#0f766e" rx="2"/>
<text x="197.02380952380955" y="370" transform="rotate(-45 197.02380952380955,370)" text-anchor="middle" font-size="8" fill="#334155">08/02</text>
<text x="197.02380952380955" y="335" text-anchor="middle" font-size="9" fill="#334155">16</text>
<rect x="202.47619047619048" y="335.6344500444708" width="6.904761904761905" height="4.365549955529203" fill="#0f766e" rx="2"/>
<text x="205.92857142857144" y="370" transform="rotate(-45 205.92857142857144,370)" text-anchor="middle" font-size="8" fill="#334155">08/03</text>
<text x="205.92857142857144" y="331" text-anchor="middle" font-size="9" fill="#334155">95</text>
<rect x="211.38095238095238" y="334.1639490068189" width="6.904761904761905" height="5.836050993181145" fill="#0f766e" rx="2"/>
<text x="214.83333333333334" y="370" transform="rotate(-45 214.83333333333334,370)" text-anchor="middle" font-size="8" fill="#334155">08/04</text>
<text x="214.83333333333334" y="330" text-anchor="middle" font-size="9" fill="#334155">127</text>
<rect x="220.28571428571428" y="331.54461903350136" width="6.904761904761905" height="8.455380966498666" fill="#0f766e" rx="2"/>
<text x="223.73809523809524" y="370" transform="rotate(-45 223.73809523809524,370)" text-anchor="middle" font-size="8" fill="#334155">08/05</text>
<text x="223.73809523809524" y="327" text-anchor="middle" font-size="9" fill="#334155">184</text>
<rect x="229.1904761904762" y="334.07204269196563" width="6.904761904761905" height="5.927957308034391" fill="#0f766e" rx="2"/>
<text x="232.64285714285717" y="370" transform="rotate(-45 232.64285714285717,370)" text-anchor="middle" font-size="8" fill="#334155">08/06</text>
<text x="232.64285714285717" y="330" text-anchor="middle" font-size="9" fill="#334155">129</text>
<rect x="238.0952380952381" y="328.9252890601838" width="6.904761904761905" height="11.074710939816187" fill="#0f766e" rx="2"/>
<text x="241.54761904761907" y="370" transform="rotate(-45 241.54761904761907,370)" text-anchor="middle" font-size="8" fill="#334155">08/07</text>
<text x="241.54761904761907" y="324" text-anchor="middle" font-size="9" fill="#334155">241</text>
<rect x="247.0" y="332.6015416543137" width="6.904761904761905" height="7.398458345686333" fill="#0f766e" rx="2"/>
<text x="250.45238095238096" y="370" transform="rotate(-45 250.45238095238096,370)" text-anchor="middle" font-size="8" fill="#334155">08/08</text>
<text x="250.45238095238096" y="328" text-anchor="middle" font-size="9" fill="#334155">161</text>
<rect x="255.90476190476193" y="339.1728431663208" width="6.904761904761905" height="0.8271568336792173" fill="#0f766e" rx="2"/>
<text x="259.3571428571429" y="370" transform="rotate(-45 259.3571428571429,370)" text-anchor="middle" font-size="8" fill="#334155">08/09</text>
<text x="259.3571428571429" y="335" text-anchor="middle" font-size="9" fill="#334155">18</text>
<rect x="264.80952380952385" y="333.1070263860065" width="6.904761904761905" height="6.892973613993478" fill="#0f766e" rx="2"/>
<text x="268.2619047619048" y="370" transform="rotate(-45 268.2619047619048,370)" text-anchor="middle" font-size="8" fill="#334155">08/11</text>
<text x="268.2619047619048" y="329" text-anchor="middle" font-size="9" fill="#334155">150</text>
<rect x="273.7142857142857" y="332.00415060776754" width="6.904761904761905" height="7.995849392232434" fill="#0f766e" rx="2"/>
<text x="277.1666666666667" y="370" transform="rotate(-45 277.1666666666667,370)" text-anchor="middle" font-size="8" fill="#334155">08/12</text>
<text x="277.1666666666667" y="328" text-anchor="middle" font-size="9" fill="#334155">174</text>
<rect x="282.6190476190476" y="334.5315742662318" width="6.904761904761905" height="5.468425733768159" fill="#0f766e" rx="2"/>
<text x="286.07142857142856" y="370" transform="rotate(-45 286.07142857142856,370)" text-anchor="middle" font-size="8" fill="#334155">08/13</text>
<text x="286.07142857142856" y="330" text-anchor="middle" font-size="9" fill="#334155">119</text>
<rect x="291.5238095238095" y="332.7394011265935" width="6.904761904761905" height="7.260598873406463" fill="#0f766e" rx="2"/>
<text x="294.9761904761905" y="370" transform="rotate(-45 294.9761904761905,370)" text-anchor="middle" font-size="8" fill="#334155">08/14</text>
<text x="294.9761904761905" y="328" text-anchor="middle" font-size="9" fill="#334155">158</text>
<rect x="300.42857142857144" y="332.6934479691669" width="6.904761904761905" height="7.306552030833086" fill="#0f766e" rx="2"/>
<text x="303.8809523809524" y="370" transform="rotate(-45 303.8809523809524,370)" text-anchor="middle" font-size="8" fill="#334155">08/15</text>
<text x="303.8809523809524" y="328" text-anchor="middle" font-size="9" fill="#334155">159</text>
<rect x="309.33333333333337" y="337.33471686925583" width="6.904761904761905" height="2.6652831307441445" fill="#0f766e" rx="2"/>
<text x="312.78571428571433" y="370" transform="rotate(-45 312.78571428571433,370)" text-anchor="middle" font-size="8" fill="#334155">08/16</text>
<text x="312.78571428571433" y="333" text-anchor="middle" font-size="9" fill="#334155">58</text>
<rect x="318.23809523809524" y="339.54046842573376" width="6.904761904761905" height="0.45953157426623187" fill="#0f766e" rx="2"/>
<text x="321.6904761904762" y="370" transform="rotate(-45 321.6904761904762,370)" text-anchor="middle" font-size="8" fill="#334155">08/17</text>
<text x="321.6904761904762" y="335" text-anchor="middle" font-size="9" fill="#334155">10</text>
<rect x="327.14285714285717" y="337.74829528609547" width="6.904761904761905" height="2.251704713904536" fill="#0f766e" rx="2"/>
<text x="330.59523809523813" y="370" transform="rotate(-45 330.59523809523813,370)" text-anchor="middle" font-size="8" fill="#334155">08/18</text>
<text x="330.59523809523813" y="333" text-anchor="middle" font-size="9" fill="#334155">49</text>
<rect x="336.04761904761904" y="337.564482656389" width="6.904761904761905" height="2.435517343611029" fill="#0f766e" rx="2"/>
<text x="339.5" y="370" transform="rotate(-45 339.5,370)" text-anchor="middle" font-size="8" fill="#334155">08/19</text>
<text x="339.5" y="333" text-anchor="middle" font-size="9" fill="#334155">53</text>
<rect x="344.95238095238096" y="338.66735843462794" width="6.904761904761905" height="1.3326415653720722" fill="#0f766e" rx="2"/>
<text x="348.4047619047619" y="370" transform="rotate(-45 348.4047619047619,370)" text-anchor="middle" font-size="8" fill="#334155">08/20</text>
<text x="348.4047619047619" y="334" text-anchor="middle" font-size="9" fill="#334155">29</text>
<rect x="353.8571428571429" y="336.2777942484435" width="6.904761904761905" height="3.722205751556478" fill="#0f766e" rx="2"/>
<text x="357.30952380952385" y="370" transform="rotate(-45 357.30952380952385,370)" text-anchor="middle" font-size="8" fill="#334155">08/21</text>
<text x="357.30952380952385" y="332" text-anchor="middle" font-size="9" fill="#334155">81</text>
<rect x="362.76190476190476" y="337.7023421286688" width="6.904761904761905" height="2.2976578713311593" fill="#0f766e" rx="2"/>
<text x="366.2142857142857" y="370" transform="rotate(-45 366.2142857142857,370)" text-anchor="middle" font-size="8" fill="#334155">08/22</text>
<text x="366.2142857142857" y="333" text-anchor="middle" font-size="9" fill="#334155">50</text>
<rect x="371.6666666666667" y="340.0" width="6.904761904761905" height="0.0" fill="#0f766e" rx="2"/>
<text x="375.11904761904765" y="370" transform="rotate(-45 375.11904761904765,370)" text-anchor="middle" font-size="8" fill="#334155">08/23</text>
<text x="375.11904761904765" y="336" text-anchor="middle" font-size="9" fill="#334155">0</text>
<rect x="380.57142857142856" y="339.1728431663208" width="6.904761904761905" height="0.8271568336792173" fill="#0f766e" rx="2"/>
<text x="384.0238095238095" y="370" transform="rotate(-45 384.0238095238095,370)" text-anchor="middle" font-size="8" fill="#334155">08/24</text>
<text x="384.0238095238095" y="335" text-anchor="middle" font-size="9" fill="#334155">18</text>
<rect x="389.4761904761905" y="334.94515268307146" width="6.904761904761905" height="5.05484731692855" fill="#0f766e" rx="2"/>
<text x="392.92857142857144" y="370" transform="rotate(-45 392.92857142857144,370)" text-anchor="middle" font-size="8" fill="#334155">08/25</text>
<text x="392.92857142857144" y="330" text-anchor="middle" font-size="9" fill="#334155">110</text>
<rect x="398.3809523809524" y="336.92113845241624" width="6.904761904761905" height="3.0788615475837533" fill="#0f766e" rx="2"/>
<text x="401.83333333333337" y="370" transform="rotate(-45 401.83333333333337,370)" text-anchor="middle" font-size="8" fill="#334155">08/26</text>
<text x="401.83333333333337" y="332" text-anchor="middle" font-size="9" fill="#334155">67</text>
<rect x="407.2857142857143" y="324.19211384524164" width="6.904761904761905" height="15.807886154758377" fill="#0f766e" rx="2"/>
<text x="410.73809523809524" y="370" transform="rotate(-45 410.73809523809524,370)" text-anchor="middle" font-size="8" fill="#334155">08/27</text>
<text x="410.73809523809524" y="320" text-anchor="middle" font-size="9" fill="#334155">344</text>
<rect x="416.1904761904762" y="334.7153868959383" width="6.904761904761905" height="5.284613104061667" fill="#0f766e" rx="2"/>
<text x="419.64285714285717" y="370" transform="rotate(-45 419.64285714285717,370)" text-anchor="middle" font-size="8" fill="#334155">08/28</text>
<text x="419.64285714285717" y="330" text-anchor="middle" font-size="9" fill="#334155">115</text>
<rect x="425.09523809523813" y="339.49451526830717" width="6.904761904761905" height="0.505484731692855" fill="#0f766e" rx="2"/>
<text x="428.5476190476191" y="370" transform="rotate(-45 428.5476190476191,370)" text-anchor="middle" font-size="8" fill="#334155">08/29</text>
<text x="428.5476190476191" y="335" text-anchor="middle" font-size="9" fill="#334155">11</text>
<rect x="434.0" y="336.00207530388377" width="6.904761904761905" height="3.997924696116217" fill="#0f766e" rx="2"/>
<text x="437.45238095238096" y="370" transform="rotate(-45 437.45238095238096,370)" text-anchor="middle" font-size="8" fill="#334155">08/30</text>
<text x="437.45238095238096" y="332" text-anchor="middle" font-size="9" fill="#334155">87</text>
<rect x="442.9047619047619" y="329.15505484731693" width="6.904761904761905" height="10.844945152683072" fill="#0f766e" rx="2"/>
<text x="446.3571428571429" y="370" transform="rotate(-45 446.3571428571429,370)" text-anchor="middle" font-size="8" fill="#334155">08/31</text>
<text x="446.3571428571429" y="325" text-anchor="middle" font-size="9" fill="#334155">236</text>
<rect x="451.80952380952385" y="327.5007411799585" width="6.904761904761905" height="12.499258820041508" fill="#0f766e" rx="2"/>
<text x="455.2619047619048" y="370" transform="rotate(-45 455.2619047619048,370)" text-anchor="middle" font-size="8" fill="#334155">09/01</text>
<text x="455.2619047619048" y="323" text-anchor="middle" font-size="9" fill="#334155">272</text>
<rect x="460.7142857142857" y="336.093981618737" width="6.904761904761905" height="3.9060183812629705" fill="#0f766e" rx="2"/>
<text x="464.1666666666667" y="370" transform="rotate(-45 464.1666666666667,370)" text-anchor="middle" font-size="8" fill="#334155">09/02</text>
<text x="464.1666666666667" y="332" text-anchor="middle" font-size="9" fill="#334155">85</text>
<rect x="469.61904761904765" y="332.37177586718053" width="6.904761904761905" height="7.628224132819449" fill="#0f766e" rx="2"/>
<text x="473.0714285714286" y="370" transform="rotate(-45 473.0714285714286,370)" text-anchor="middle" font-size="8" fill="#334155">09/03</text>
<text x="473.0714285714286" y="328" text-anchor="middle" font-size="9" fill="#334155">166</text>
<rect x="478.5238095238095" y="340.0" width="6.904761904761905" height="0.0" fill="#0f766e" rx="2"/>
<text x="481.9761904761905" y="370" transform="rotate(-45 481.9761904761905,370)" text-anchor="middle" font-size="8" fill="#334155">09/07</text>
<text x="481.9761904761905" y="336" text-anchor="middle" font-size="9" fill="#334155">0</text>
<rect x="487.42857142857144" y="321.71064334420396" width="6.904761904761905" height="18.289356655796027" fill="#0f766e" rx="2"/>
<text x="490.8809523809524" y="370" transform="rotate(-45 490.8809523809524,370)" text-anchor="middle" font-size="8" fill="#334155">09/09</text>
<text x="490.8809523809524" y="317" text-anchor="middle" font-size="9" fill="#334155">398</text>
<rect x="496.33333333333337" y="306.82182033797807" width="6.904761904761905" height="33.17817966202194" fill="#0f766e" rx="2"/>
<text x="499.78571428571433" y="370" transform="rotate(-45 499.78571428571433,370)" text-anchor="middle" font-size="8" fill="#334155">09/10</text>
<text x="499.78571428571433" y="302" text-anchor="middle" font-size="9" fill="#334155">722</text>
<rect x="505.23809523809524" y="339.4485621108805" width="6.904761904761905" height="0.5514378891194782" fill="#0f766e" rx="2"/>
<text x="508.6904761904762" y="370" transform="rotate(-45 508.6904761904762,370)" text-anchor="middle" font-size="8" fill="#334155">09/11</text>
<text x="508.6904761904762" y="335" text-anchor="middle" font-size="9" fill="#334155">12</text>
<rect x="514.1428571428571" y="340.0" width="6.904761904761905" height="0.0" fill="#0f766e" rx="2"/>
<text x="517.5952380952381" y="370" transform="rotate(-45 517.5952380952381,370)" text-anchor="middle" font-size="8" fill="#334155">09/12</text>
<text x="517.5952380952381" y="336" text-anchor="middle" font-size="9" fill="#334155">0</text>
<rect x="523.047619047619" y="315.9664986658761" width="6.904761904761905" height="24.033501334123926" fill="#0f766e" rx="2"/>
<text x="526.5" y="370" transform="rotate(-45 526.5,370)" text-anchor="middle" font-size="8" fill="#334155">09/15</text>
<text x="526.5" y="311" text-anchor="middle" font-size="9" fill="#334155">523</text>
<rect x="531.952380952381" y="332.32582270975394" width="6.904761904761905" height="7.674177290246072" fill="#0f766e" rx="2"/>
<text x="535.4047619047619" y="370" transform="rotate(-45 535.4047619047619,370)" text-anchor="middle" font-size="8" fill="#334155">09/16</text>
<text x="535.4047619047619" y="328" text-anchor="middle" font-size="9" fill="#334155">167</text>
<rect x="540.8571428571429" y="335.17491847020455" width="6.904761904761905" height="4.825081529795434" fill="#0f766e" rx="2"/>
<text x="544.3095238095239" y="370" transform="rotate(-45 544.3095238095239,370)" text-anchor="middle" font-size="8" fill="#334155">09/17</text>
<text x="544.3095238095239" y="331" text-anchor="middle" font-size="9" fill="#334155">105</text>
<rect x="549.7619047619048" y="302.77794248443524" width="6.904761904761905" height="37.22205751556478" fill="#0f766e" rx="2"/>
<text x="553.2142857142858" y="370" transform="rotate(-45 553.2142857142858,370)" text-anchor="middle" font-size="8" fill="#334155">09/19</text>
<text x="553.2142857142858" y="298" text-anchor="middle" font-size="9" fill="#334155">810</text>
<rect x="558.6666666666667" y="339.632374740587" width="6.904761904761905" height="0.36762525941298546" fill="#0f766e" rx="2"/>
<text x="562.1190476190477" y="370" transform="rotate(-45 562.1190476190477,370)" text-anchor="middle" font-size="8" fill="#334155">09/20</text>
<text x="562.1190476190477" y="335" text-anchor="middle" font-size="9" fill="#334155">8</text>
<rect x="567.5714285714287" y="326.214052772013" width="6.904761904761905" height="13.785947227986956" fill="#0f766e" rx="2"/>
<text x="571.0238095238096" y="370" transform="rotate(-45 571.0238095238096,370)" text-anchor="middle" font-size="8" fill="#334155">09/21</text>
<text x="571.0238095238096" y="322" text-anchor="middle" font-size="9" fill="#334155">300</text>
<rect x="576.4761904761905" y="315.92054550844944" width="6.904761904761905" height="24.079454491550546" fill="#0f766e" rx="2"/>
<text x="579.9285714285714" y="370" transform="rotate(-45 579.9285714285714,370)" text-anchor="middle" font-size="8" fill="#334155">09/22</text>
<text x="579.9285714285714" y="311" text-anchor="middle" font-size="9" fill="#334155">524</text>
<rect x="585.3809523809524" y="194.879928846724" width="6.904761904761905" height="145.120071153276" fill="#0f766e" rx="2"/>
<text x="588.8333333333334" y="370" transform="rotate(-45 588.8333333333334,370)" text-anchor="middle" font-size="8" fill="#334155">09/23</text>
<text x="588.8333333333334" y="190" text-anchor="middle" font-size="9" fill="#334155">3158</text>
<rect x="594.2857142857143" y="337.33471686925583" width="6.904761904761905" height="2.6652831307441445" fill="#0f766e" rx="2"/>
<text x="597.7380952380953" y="370" transform="rotate(-45 597.7380952380953,370)" text-anchor="middle" font-size="8" fill="#334155">09/24</text>
<text x="597.7380952380953" y="333" text-anchor="middle" font-size="9" fill="#334155">58</text>
<rect x="603.1904761904763" y="320.4239549362585" width="6.904761904761905" height="19.57604506374148" fill="#0f766e" rx="2"/>
<text x="606.6428571428572" y="370" transform="rotate(-45 606.6428571428572,370)" text-anchor="middle" font-size="8" fill="#334155">09/25</text>
<text x="606.6428571428572" y="316" text-anchor="middle" font-size="9" fill="#334155">426</text>
<rect x="612.0952380952381" y="338.0699673880818" width="6.904761904761905" height="1.9300326119181737" fill="#0f766e" rx="2"/>
<text x="615.547619047619" y="370" transform="rotate(-45 615.547619047619,370)" text-anchor="middle" font-size="8" fill="#334155">09/26</text>
<text x="615.547619047619" y="334" text-anchor="middle" font-size="9" fill="#334155">42</text>
<rect x="621.0" y="331.59057219092796" width="6.904761904761905" height="8.409427809072042" fill="#0f766e" rx="2"/>
<text x="624.452380952381" y="370" transform="rotate(-45 624.452380952381,370)" text-anchor="middle" font-size="8" fill="#334155">09/29</text>
<text x="624.452380952381" y="327" text-anchor="middle" font-size="9" fill="#334155">183</text>
<rect x="629.9047619047619" y="326.5357248739994" width="6.904761904761905" height="13.464275126000594" fill="#0f766e" rx="2"/>
<text x="633.3571428571429" y="370" transform="rotate(-45 633.3571428571429,370)" text-anchor="middle" font-size="8" fill="#334155">10/01</text>
<text x="633.3571428571429" y="322" text-anchor="middle" font-size="9" fill="#334155">293</text>
<rect x="638.8095238095239" y="327.8224132819449" width="6.904761904761905" height="12.177586718055144" fill="#0f766e" rx="2"/>
<text x="642.2619047619048" y="370" transform="rotate(-45 642.2619047619048,370)" text-anchor="middle" font-size="8" fill="#334155">10/02</text>
<text x="642.2619047619048" y="323" text-anchor="middle" font-size="9" fill="#334155">265</text>
<rect x="647.7142857142858" y="334.8991995256448" width="6.904761904761905" height="5.100800474355173" fill="#0f766e" rx="2"/>
<text x="651.1666666666667" y="370" transform="rotate(-45 651.1666666666667,370)" text-anchor="middle" font-size="8" fill="#334155">10/03</text>
<text x="651.1666666666667" y="330" text-anchor="middle" font-size="9" fill="#334155">111</text>
<rect x="656.6190476190476" y="338.6214052772013" width="6.904761904761905" height="1.3785947227986957" fill="#0f766e" rx="2"/>
<text x="660.0714285714286" y="370" transform="rotate(-45 660.0714285714286,370)" text-anchor="middle" font-size="8" fill="#334155">10/04</text>
<text x="660.0714285714286" y="334" text-anchor="middle" font-size="9" fill="#334155">30</text>
<rect x="665.5238095238095" y="338.16187370293505" width="6.904761904761905" height="1.8381262970649275" fill="#0f766e" rx="2"/>
<text x="668.9761904761905" y="370" transform="rotate(-45 668.9761904761905,370)" text-anchor="middle" font-size="8" fill="#334155">10/05</text>
<text x="668.9761904761905" y="334" text-anchor="middle" font-size="9" fill="#334155">40</text>
<rect x="674.4285714285714" y="305.7648977171657" width="6.904761904761905" height="34.235102282834276" fill="#0f766e" rx="2"/>
<text x="677.8809523809524" y="370" transform="rotate(-45 677.8809523809524,370)" text-anchor="middle" font-size="8" fill="#334155">10/06</text>
<text x="677.8809523809524" y="301" text-anchor="middle" font-size="9" fill="#334155">745</text>
<rect x="683.3333333333334" y="325.4788022531871" width="6.904761904761905" height="14.521197746812925" fill="#0f766e" rx="2"/>
<text x="686.7857142857143" y="370" transform="rotate(-45 686.7857142857143,370)" text-anchor="middle" font-size="8" fill="#334155">10/07</text>
<text x="686.7857142857143" y="321" text-anchor="middle" font-size="9" fill="#334155">316</text>
<rect x="692.2380952380953" y="327.7305069670916" width="6.904761904761905" height="12.26949303290839" fill="#0f766e" rx="2"/>
<text x="695.6904761904763" y="370" transform="rotate(-45 695.6904761904763,370)" text-anchor="middle" font-size="8" fill="#334155">10/08</text>
<text x="695.6904761904763" y="323" text-anchor="middle" font-size="9" fill="#334155">267</text>
<rect x="701.1428571428571" y="329.9362585235695" width="6.904761904761905" height="10.063741476430478" fill="#0f766e" rx="2"/>
<text x="704.5952380952381" y="370" transform="rotate(-45 704.5952380952381,370)" text-anchor="middle" font-size="8" fill="#334155">10/27</text>
<text x="704.5952380952381" y="325" text-anchor="middle" font-size="9" fill="#334155">219</text>
<rect x="710.047619047619" y="339.03498369404093" width="6.904761904761905" height="0.9650163059590868" fill="#0f766e" rx="2"/>
<text x="713.5" y="370" transform="rotate(-45 713.5,370)" text-anchor="middle" font-size="8" fill="#334155">10/28</text>
<text x="713.5" y="335" text-anchor="middle" font-size="9" fill="#334155">21</text>
<rect x="718.952380952381" y="332.7394011265935" width="6.904761904761905" height="7.260598873406463" fill="#0f766e" rx="2"/>
<text x="722.4047619047619" y="370" transform="rotate(-45 722.4047619047619,370)" text-anchor="middle" font-size="8" fill="#334155">10/29</text>
<text x="722.4047619047619" y="328" text-anchor="middle" font-size="9" fill="#334155">158</text>
<rect x="727.8571428571429" y="340.0" width="6.904761904761905" height="0.0" fill="#0f766e" rx="2"/>
<text x="731.3095238095239" y="370" transform="rotate(-45 731.3095238095239,370)" text-anchor="middle" font-size="8" fill="#334155">11/03</text>
<text x="731.3095238095239" y="336" text-anchor="middle" font-size="9" fill="#334155">0</text>
<rect x="736.7619047619048" y="340.0" width="6.904761904761905" height="0.0" fill="#0f766e" rx="2"/>
<text x="740.2142857142858" y="370" transform="rotate(-45 740.2142857142858,370)" text-anchor="middle" font-size="8" fill="#334155">11/10</text>
<text x="740.2142857142858" y="336" text-anchor="middle" font-size="9" fill="#334155">0</text>
<rect x="745.6666666666667" y="339.90809368514675" width="6.904761904761905" height="0.09190631485324637" fill="#0f766e" rx="2"/>
<text x="749.1190476190477" y="370" transform="rotate(-45 749.1190476190477,370)" text-anchor="middle" font-size="8" fill="#334155">11/11</text>
<text x="749.1190476190477" y="335" text-anchor="middle" font-size="9" fill="#334155">2</text>
<rect x="754.5714285714286" y="339.1728431663208" width="6.904761904761905" height="0.8271568336792173" fill="#0f766e" rx="2"/>
<text x="758.0238095238095" y="370" transform="rotate(-45 758.0238095238095,370)" text-anchor="middle" font-size="8" fill="#334155">11/14</text>
<text x="758.0238095238095" y="335" text-anchor="middle" font-size="9" fill="#334155">18</text>
<rect x="763.4761904761905" y="338.3916394900682" width="6.904761904761905" height="1.6083605099318115" fill="#0f766e" rx="2"/>
<text x="766.9285714285714" y="370" transform="rotate(-45 766.9285714285714,370)" text-anchor="middle" font-size="8" fill="#334155">12/10</text>
<text x="766.9285714285714" y="334" text-anchor="middle" font-size="9" fill="#334155">35</text>
<rect x="772.3809523809524" y="339.72428105544026" width="6.904761904761905" height="0.2757189445597391" fill="#0f766e" rx="2"/>
<text x="775.8333333333334" y="370" transform="rotate(-45 775.8333333333334,370)" text-anchor="middle" font-size="8" fill="#334155">12/15</text>
<text x="775.8333333333334" y="335" text-anchor="middle" font-size="9" fill="#334155">6</text>
<rect x="781.2857142857143" y="339.90809368514675" width="6.904761904761905" height="0.09190631485324637" fill="#0f766e" rx="2"/>
<text x="784.7380952380953" y="370" transform="rotate(-45 784.7380952380953,370)" text-anchor="middle" font-size="8" fill="#334155">12/16</text>
<text x="784.7380952380953" y="335" text-anchor="middle" font-size="9" fill="#334155">2</text>
<rect x="790.1904761904763" y="322.3539875481767" width="6.904761904761905" height="17.646012451823303" fill="#0f766e" rx="2"/>
<text x="793.6428571428572" y="370" transform="rotate(-45 793.6428571428572,370)" text-anchor="middle" font-size="8" fill="#334155">12/21</text>
<text x="793.6428571428572" y="318" text-anchor="middle" font-size="9" fill="#334155">384</text>
<rect x="799.0952380952381" y="327.7764601245182" width="6.904761904761905" height="12.223539875481768" fill="#0f766e" rx="2"/>
<text x="802.547619047619" y="370" transform="rotate(-45 802.547619047619,370)" text-anchor="middle" font-size="8" fill="#334155">12/22</text>
<text x="802.547619047619" y="323" text-anchor="middle" font-size="9" fill="#334155">266</text>
<rect x="808.0" y="339.90809368514675" width="6.904761904761905" height="0.09190631485324637" fill="#0f766e" rx="2"/>
<text x="811.452380952381" y="370" transform="rotate(-45 811.452380952381,370)" text-anchor="middle" font-size="8" fill="#334155">12/26</text>
<text x="811.452380952381" y="335" text-anchor="middle" font-size="9" fill="#334155">2</text>
<rect x="816.9047619047619" y="248.41535724874" width="6.904761904761905" height="91.58464275126" fill="#0f766e" rx="2"/>
<text x="820.3571428571429" y="370" transform="rotate(-45 820.3571428571429,370)" text-anchor="middle" font-size="8" fill="#334155">12/27</text>
<text x="820.3571428571429" y="244" text-anchor="middle" font-size="9" fill="#334155">1993</text>
<rect x="825.8095238095239" y="297.0337978061073" width="6.904761904761905" height="42.966202193892684" fill="#0f766e" rx="2"/>
<text x="829.2619047619048" y="370" transform="rotate(-45 829.2619047619048,370)" text-anchor="middle" font-size="8" fill="#334155">12/28</text>
<text x="829.2619047619048" y="293" text-anchor="middle" font-size="9" fill="#334155">935</text>
<rect x="834.7142857142858" y="335.2208716276312" width="6.904761904761905" height="4.779128372368811" fill="#0f766e" rx="2"/>
<text x="838.1666666666667" y="370" transform="rotate(-45 838.1666666666667,370)" text-anchor="middle" font-size="8" fill="#334155">12/29</text>
<text x="838.1666666666667" y="331" text-anchor="middle" font-size="9" fill="#334155">104</text>
<rect x="843.6190476190477" y="334.8991995256448" width="6.904761904761905" height="5.100800474355173" fill="#0f766e" rx="2"/>
<text x="847.0714285714287" y="370" transform="rotate(-45 847.0714285714287,370)" text-anchor="middle" font-size="8" fill="#334155">12/30</text>
<text x="847.0714285714287" y="330" text-anchor="middle" font-size="9" fill="#334155">111</text>
<rect x="852.5238095238095" y="312.4740587014527" width="6.904761904761905" height="27.525941298547288" fill="#0f766e" rx="2"/>
<text x="855.9761904761905" y="370" transform="rotate(-45 855.9761904761905,370)" text-anchor="middle" font-size="8" fill="#334155">01/04</text>
<text x="855.9761904761905" y="308" text-anchor="middle" font-size="9" fill="#334155">599</text>
<rect x="861.4285714285714" y="294.50637414764304" width="6.904761904761905" height="45.493625852356956" fill="#0f766e" rx="2"/>
<text x="864.8809523809524" y="370" transform="rotate(-45 864.8809523809524,370)" text-anchor="middle" font-size="8" fill="#334155">01/05</text>
<text x="864.8809523809524" y="290" text-anchor="middle" font-size="9" fill="#334155">990</text>
<rect x="870.3333333333334" y="320.240142306552" width="6.904761904761905" height="19.75985769344797" fill="#0f766e" rx="2"/>
<text x="873.7857142857143" y="370" transform="rotate(-45 873.7857142857143,370)" text-anchor="middle" font-size="8" fill="#334155">01/06</text>
<text x="873.7857142857143" y="316" text-anchor="middle" font-size="9" fill="#334155">430</text>
<rect x="879.2380952380953" y="319.7806107322858" width="6.904761904761905" height="20.2193892677142" fill="#0f766e" rx="2"/>
<text x="882.6904761904763" y="370" transform="rotate(-45 882.6904761904763,370)" text-anchor="middle" font-size="8" fill="#334155">01/07</text>
<text x="882.6904761904763" y="315" text-anchor="middle" font-size="9" fill="#334155">440</text>
<rect x="888.1428571428572" y="337.10495108212274" width="6.904761904761905" height="2.8950489178772605" fill="#0f766e" rx="2"/>
<text x="891.5952380952382" y="370" transform="rotate(-45 891.5952380952382,370)" text-anchor="middle" font-size="8" fill="#334155">01/10</text>
<text x="891.5952380952382" y="333" text-anchor="middle" font-size="9" fill="#334155">63</text>
<rect x="897.047619047619" y="138.49540468425735" width="6.904761904761905" height="201.50459531574265" fill="#0f766e" rx="2"/>
<text x="900.5" y="370" transform="rotate(-45 900.5,370)" text-anchor="middle" font-size="8" fill="#334155">01/11</text>
<text x="900.5" y="134" text-anchor="middle" font-size="9" fill="#334155">4385</text>
<rect x="905.952380952381" y="316.70174918470207" width="6.904761904761905" height="23.298250815297955" fill="#0f766e" rx="2"/>
<text x="909.4047619047619" y="370" transform="rotate(-45 909.4047619047619,370)" text-anchor="middle" font-size="8" fill="#334155">01/20</text>
<text x="909.4047619047619" y="312" text-anchor="middle" font-size="9" fill="#334155">507</text>
<rect x="914.8571428571429" y="334.5315742662318" width="6.904761904761905" height="5.468425733768159" fill="#0f766e" rx="2"/>
<text x="918.3095238095239" y="370" transform="rotate(-45 918.3095238095239,370)" text-anchor="middle" font-size="8" fill="#334155">01/21</text>
<text x="918.3095238095239" y="330" text-anchor="middle" font-size="9" fill="#334155">119</text>
<rect x="923.7619047619048" y="337.8402016009487" width="6.904761904761905" height="2.1597983990512897" fill="#0f766e" rx="2"/>
<text x="927.2142857142858" y="370" transform="rotate(-45 927.2142857142858,370)" text-anchor="middle" font-size="8" fill="#334155">01/22</text>
<text x="927.2142857142858" y="333" text-anchor="middle" font-size="9" fill="#334155">47</text>
<rect x="932.6666666666667" y="333.8422769048325" width="6.904761904761905" height="6.157723095167507" fill="#0f766e" rx="2"/>
<text x="936.1190476190477" y="370" transform="rotate(-45 936.1190476190477,370)" text-anchor="middle" font-size="8" fill="#334155">01/23</text>
<text x="936.1190476190477" y="329" text-anchor="middle" font-size="9" fill="#334155">134</text>
<rect x="941.5714285714286" y="326.9033501334124" width="6.904761904761905" height="13.096649866587608" fill="#0f766e" rx="2"/>
<text x="945.0238095238095" y="370" transform="rotate(-45 945.0238095238095,370)" text-anchor="middle" font-size="8" fill="#334155">01/24</text>
<text x="945.0238095238095" y="322" text-anchor="middle" font-size="9" fill="#334155">285</text>
<rect x="950.4761904761905" y="324.4678327898014" width="6.904761904761905" height="15.532167210198637" fill="#0f766e" rx="2"/>
<text x="953.9285714285714" y="370" transform="rotate(-45 953.9285714285714,370)" text-anchor="middle" font-size="8" fill="#334155">01/25</text>
<text x="953.9285714285714" y="320" text-anchor="middle" font-size="9" fill="#334155">338</text>
<rect x="959.3809523809524" y="339.7702342128669" width="6.904761904761905" height="0.22976578713311593" fill="#0f766e" rx="2"/>
<text x="962.8333333333334" y="370" transform="rotate(-45 962.8333333333334,370)" text-anchor="middle" font-size="8" fill="#334155">01/26</text>
<text x="962.8333333333334" y="335" text-anchor="middle" font-size="9" fill="#334155">5</text>
<rect x="968.2857142857143" y="339.2187963237474" width="6.904761904761905" height="0.7812036762525942" fill="#0f766e" rx="2"/>
<text x="971.7380952380953" y="370" transform="rotate(-45 971.7380952380953,370)" text-anchor="middle" font-size="8" fill="#334155">01/29</text>
<text x="971.7380952380953" y="335" text-anchor="middle" font-size="9" fill="#334155">17</text>
<rect x="977.1904761904763" y="90.52030833086275" width="6.904761904761905" height="249.47969166913725" fill="#0f766e" rx="2"/>
<text x="980.6428571428572" y="370" transform="rotate(-45 980.6428571428572,370)" text-anchor="middle" font-size="8" fill="#334155">01/30</text>
<text x="980.6428571428572" y="86" text-anchor="middle" font-size="9" fill="#334155">5429</text>
<rect x="986.0952380952381" y="250.94278090720428" width="6.904761904761905" height="89.05721909279573" fill="#0f766e" rx="2"/>
<text x="989.547619047619" y="370" transform="rotate(-45 989.547619047619,370)" text-anchor="middle" font-size="8" fill="#334155">01/31</text>
<text x="989.547619047619" y="246" text-anchor="middle" font-size="9" fill="#334155">1938</text>
<rect x="995.0" y="260.9605692262081" width="6.904761904761905" height="79.03943077379188" fill="#0f766e" rx="2"/>
<text x="998.452380952381" y="370" transform="rotate(-45 998.452380952381,370)" text-anchor="middle" font-size="8" fill="#334155">02/01</text>
<text x="998.452380952381" y="256" text-anchor="middle" font-size="9" fill="#334155">1720</text>
<rect x="1003.9047619047619" y="303.6050993181144" width="6.904761904761905" height="36.39490068188556" fill="#0f766e" rx="2"/>
<text x="1007.3571428571429" y="370" transform="rotate(-45 1007.3571428571429,370)" text-anchor="middle" font-size="8" fill="#334155">02/02</text>
<text x="1007.3571428571429" y="299" text-anchor="middle" font-size="9" fill="#334155">792</text>
<rect x="1012.8095238095239" y="328.0981322265046" width="6.904761904761905" height="11.901867773495404" fill="#0f766e" rx="2"/>
<text x="1016.2619047619048" y="370" transform="rotate(-45 1016.2619047619048,370)" text-anchor="middle" font-size="8" fill="#334155">02/03</text>
<text x="1016.2619047619048" y="324" text-anchor="middle" font-size="9" fill="#334155">259</text>
<rect x="1021.7142857142858" y="338.2078268603617" width="6.904761904761905" height="1.7921731396383043" fill="#0f766e" rx="2"/>
<text x="1025.1666666666667" y="370" transform="rotate(-45 1025.1666666666667,370)" text-anchor="middle" font-size="8" fill="#334155">02/04</text>
<text x="1025.1666666666667" y="334" text-anchor="middle" font-size="9" fill="#334155">39</text>
<rect x="1030.6190476190477" y="298.91787726059886" width="6.904761904761905" height="41.08212273940113" fill="#0f766e" rx="2"/>
<text x="1034.0714285714287" y="370" transform="rotate(-45 1034.0714285714287,370)" text-anchor="middle" font-size="8" fill="#334155">02/05</text>
<text x="1034.0714285714287" y="294" text-anchor="middle" font-size="9" fill="#334155">894</text>
<rect x="1039.5238095238096" y="339.264749481174" width="6.904761904761905" height="0.7352505188259709" fill="#0f766e" rx="2"/>
<text x="1042.9761904761906" y="370" transform="rotate(-45 1042.9761904761906,370)" text-anchor="middle" font-size="8" fill="#334155">02/06</text>
<text x="1042.9761904761906" y="335" text-anchor="middle" font-size="9" fill="#334155">16</text>
<rect x="1048.4285714285716" y="339.49451526830717" width="6.904761904761905" height="0.505484731692855" fill="#0f766e" rx="2"/>
<text x="1051.8809523809525" y="370" transform="rotate(-45 1051.8809523809525,370)" text-anchor="middle" font-size="8" fill="#334155">02/07</text>
<text x="1051.8809523809525" y="335" text-anchor="middle" font-size="9" fill="#334155">11</text>
<rect x="1057.3333333333335" y="340.0" width="6.904761904761905" height="0.0" fill="#0f766e" rx="2"/>
<text x="1060.7857142857144" y="370" transform="rotate(-45 1060.7857142857144,370)" text-anchor="middle" font-size="8" fill="#334155">02/08</text>
<text x="1060.7857142857144" y="336" text-anchor="middle" font-size="9" fill="#334155">0</text>
<rect x="1066.2380952380954" y="326.0761932997332" width="6.904761904761905" height="13.923806700266825" fill="#0f766e" rx="2"/>
<text x="1069.6904761904764" y="370" transform="rotate(-45 1069.6904761904764,370)" text-anchor="middle" font-size="8" fill="#334155">02/09</text>
<text x="1069.6904761904764" y="322" text-anchor="middle" font-size="9" fill="#334155">303</text>
<rect x="1075.1428571428573" y="329.7064927364364" width="6.904761904761905" height="10.293507263563594" fill="#0f766e" rx="2"/>
<text x="1078.5952380952383" y="370" transform="rotate(-45 1078.5952380952383,370)" text-anchor="middle" font-size="8" fill="#334155">02/10</text>
<text x="1078.5952380952383" y="325" text-anchor="middle" font-size="9" fill="#334155">224</text>
<rect x="1084.047619047619" y="339.8161873702935" width="6.904761904761905" height="0.18381262970649273" fill="#0f766e" rx="2"/>
<text x="1087.5" y="370" transform="rotate(-45 1087.5,370)" text-anchor="middle" font-size="8" fill="#334155">02/11</text>
<text x="1087.5" y="335" text-anchor="middle" font-size="9" fill="#334155">4</text>
<rect x="1092.952380952381" y="335.5884968870442" width="6.904761904761905" height="4.411503112955826" fill="#0f766e" rx="2"/>
<text x="1096.404761904762" y="370" transform="rotate(-45 1096.404761904762,370)" text-anchor="middle" font-size="8" fill="#334155">02/12</text>
<text x="1096.404761904762" y="331" text-anchor="middle" font-size="9" fill="#334155">96</text>
<rect x="1101.857142857143" y="338.85117106433444" width="6.904761904761905" height="1.1488289356655796" fill="#0f766e" rx="2"/>
<text x="1105.3095238095239" y="370" transform="rotate(-45 1105.3095238095239,370)" text-anchor="middle" font-size="8" fill="#334155">02/13</text>
<text x="1105.3095238095239" y="334" text-anchor="middle" font-size="9" fill="#334155">25</text>
<rect x="1110.7619047619048" y="340.0" width="6.904761904761905" height="0.0" fill="#0f766e" rx="2"/>
<text x="1114.2142857142858" y="370" transform="rotate(-45 1114.2142857142858,370)" text-anchor="middle" font-size="8" fill="#334155">02/14</text>
<text x="1114.2142857142858" y="336" text-anchor="middle" font-size="9" fill="#334155">0</text>
<rect x="1119.6666666666667" y="339.35665579602727" width="6.904761904761905" height="0.6433442039727246" fill="#0f766e" rx="2"/>
<text x="1123.1190476190477" y="370" transform="rotate(-45 1123.1190476190477,370)" text-anchor="middle" font-size="8" fill="#334155">02/16</text>
<text x="1123.1190476190477" y="335" text-anchor="middle" font-size="9" fill="#334155">14</text>
<rect x="1128.5714285714287" y="336.92113845241624" width="6.904761904761905" height="3.0788615475837533" fill="#0f766e" rx="2"/>
<text x="1132.0238095238096" y="370" transform="rotate(-45 1132.0238095238096,370)" text-anchor="middle" font-size="8" fill="#334155">02/17</text>
<text x="1132.0238095238096" y="332" text-anchor="middle" font-size="9" fill="#334155">67</text>
<rect x="1137.4761904761906" y="327.54669433738513" width="6.904761904761905" height="12.453305662614882" fill="#0f766e" rx="2"/>
<text x="1140.9285714285716" y="370" transform="rotate(-45 1140.9285714285716,370)" text-anchor="middle" font-size="8" fill="#334155">02/18</text>
<text x="1140.9285714285716" y="323" text-anchor="middle" font-size="9" fill="#334155">271</text>
<rect x="1146.3809523809525" y="335.9101689890305" width="6.904761904761905" height="4.089831010969464" fill="#0f766e" rx="2"/>
<text x="1149.8333333333335" y="370" transform="rotate(-45 1149.8333333333335,370)" text-anchor="middle" font-size="8" fill="#334155">02/19</text>
<text x="1149.8333333333335" y="331" text-anchor="middle" font-size="9" fill="#334155">89</text>
<rect x="1155.2857142857142" y="339.5864215831604" width="6.904761904761905" height="0.41357841683960866" fill="#0f766e" rx="2"/>
<text x="1158.7380952380952" y="370" transform="rotate(-45 1158.7380952380952,370)" text-anchor="middle" font-size="8" fill="#334155">02/20</text>
<text x="1158.7380952380952" y="335" text-anchor="middle" font-size="9" fill="#334155">9</text>
<rect x="1164.1904761904761" y="30.0" width="6.904761904761905" height="310.0" fill="#0f766e" rx="2"/>
<text x="1167.642857142857" y="370" transform="rotate(-45 1167.642857142857,370)" text-anchor="middle" font-size="8" fill="#334155">02/21</text>
<text x="1167.642857142857" y="26" text-anchor="middle" font-size="9" fill="#334155">6746</text>
<rect x="1173.095238095238" y="339.632374740587" width="6.904761904761905" height="0.36762525941298546" fill="#0f766e" rx="2"/>
<text x="1176.547619047619" y="370" transform="rotate(-45 1176.547619047619,370)" text-anchor="middle" font-size="8" fill="#334155">02/22</text>
<text x="1176.547619047619" y="335" text-anchor="middle" font-size="9" fill="#334155">8</text>
</g>
</svg>