<svg xmlns="http://www.w3.org/2000/svg" viewBox="0 0 900 420">
<rect x="0" y="0" width="900" height="420" fill="#f8fafc" />
<text x="450" y="22" text-anchor="middle" font-size="16" font-weight="600" fill="#0f172a">Monthly Package.swift Activity (Jul 2025 - Feb 2026)</text>
<line x1="60" y1="340" x2="880" y2="340" stroke="#cbd5e1" stroke-width="1" />
<g font-family="monospace" font-size="11" fill="#1e293b">
<line x1="60" y1="340.0" x2="880" y2="340.0" stroke="#e2e8f0" stroke-width="1" />
<text x="52" y="343.0" text-anchor="end">0</text>
<line x1="60" y1="262.5" x2="880" y2="262.5" stroke="#e2e8f0" stroke-width="1" />
<text x="52" y="265.5" text-anchor="end">138</text>
<line x1="60" y1="185.0" x2="880" y2="185.0" stroke="#e2e8f0" stroke-width="1" />
<text x="52" y="188.0" text-anchor="end">276</text>
<line x1="60" y1="107.5" x2="880" y2="107.5" stroke="#e2e8f0" stroke-width="1" />
<text x="52" y="110.5" text-anchor="end">414</text>
<line x1="60" y1="30.0" x2="880" y2="30.0" stroke="#e2e8f0" stroke-width="1" />
<text x="52" y="33.0" text-anchor="end">552</text>
</g>
<g font-family="monospace">
<rect x="60.0" y="292.82608695652175" width="95.5" height="47.173913043478265" fill="#ef4444" rx="2"/>
<text x="107.75" y="370" transform="rotate(-45 107.75,370)" text-anchor="middle" font-size="10" fill="#334155">Jul 2025</text>
<text x="107.75" y="286" text-anchor="middle" font-size="10" fill="#334155">84</text>
<rect x="163.5" y="254.6376811594203" width="95.5" height="85.3623188405797" fill="#ef4444" rx="2"/>
<text x="211.25" y="370" transform="rotate(-45 211.25,370)" text-anchor="middle" font-size="10" fill="#334155">Aug 2025</text>
<text x="211.25" y="248" text-anchor="middle" font-size="10" fill="#334155">152</text>
<rect x="267.0" y="165.34420289855075" width="95.5" height="174.65579710144925" fill="#ef4444" rx="2"/>
<text x="314.75" y="370" transform="rotate(-45 314.75,370)" text-anchor="middle" font-size="10" fill="#334155">Sep 2025</text>
<text x="314.75" y="159" text-anchor="middle" font-size="10" fill="#334155">311</text>
<rect x="370.5" y="292.2644927536232" width="95.5" height="47.735507246376805" fill="#ef4444" rx="2"/>
<text x="418.25" y="370" transform="rotate(-45 418.25,370)" text-anchor="middle" font-size="10" fill="#334155">Oct 2025</text>
<text x="418.25" y="286" text-anchor="middle" font-size="10" fill="#334155">85</text>
<rect x="474.0" y="338.8768115942029" width="95.5" height="1.1231884057971016" fill="#ef4444" rx="2"/>
<text x="521.75" y="370" transform="rotate(-45 521.75,370)" text-anchor="middle" font-size="10" fill="#334155">Nov 2025</text>
<text x="521.75" y="332" text-anchor="middle" font-size="10" fill="#334155">2</text>
<rect x="577.5" y="319.2210144927536" width="95.5" height="20.77898550724638" fill="#ef4444" rx="2"/>
<text x="625.25" y="370" transform="rotate(-45 625.25,370)" text-anchor="middle" font-size="10" fill="#334155">Dec 2025</text>
<text x="625.25" y="313" text-anchor="middle" font-size="10" fill="#334155">37</text>
<rect x="681.0" y="59.202898550724626" width="95.5" height="280.7971014492754" fill="#ef4444" rx="2"/>
<text x="728.75" y="370" transform="rotate(-45 728.75,370)" text-anchor="middle" font-size="10" fill="#334155">Jan 2026</text>
<text x="728.75" y="53" text-anchor="middle" font-size="10" fill="#334155">500</text>
<rect x="784.5" y="30.0" width="95.5" height="310.0" fill="#ef4444" rx="2"/>
<text x="832.25" y="370" transform="rotate(-45 832.25,370)" text-anchor="middle" font-size="10" fill="#334155">Feb 2026</text>
<text x="832.25" y="24" text-anchor="middle" font-size="10" fill="#334155">552</text>
</g>
</svg>