<svg xmlns="http://www.w3.org/2000/svg" viewBox="0 0 1200 420">
<rect x="0" y="0" width="1200" height="420" fill="#f8fafc" />
<text x="600" y="22" text-anchor="middle" font-size="16" font-weight="600" fill="#0f172a">Cumulative Day md Files (2026-01-01 - 2026-02-22)</text>
<line x1="60" y1="340" x2="1180" y2="340" stroke="#cbd5e1" stroke-width="1" />
<g font-family="monospace" font-size="11" fill="#1e293b">
<line x1="60" y1="340.0" x2="1180" y2="340.0" stroke="#e2e8f0" stroke-width="1" />
<text x="52" y="343.0" text-anchor="end">0</text>
<line x1="60" y1="262.5860155382908" x2="1180" y2="262.5860155382908" stroke="#e2e8f0" stroke-width="1" />
<text x="52" y="265.5860155382908" text-anchor="end">675</text>
<line x1="60" y1="185.1720310765816" x2="1180" y2="185.1720310765816" stroke="#e2e8f0" stroke-width="1" />
<text x="52" y="188.1720310765816" text-anchor="end">1350</text>
<line x1="60" y1="107.75804661487237" x2="1180" y2="107.75804661487237" stroke="#e2e8f0" stroke-width="1" />
<text x="52" y="110.75804661487237" text-anchor="end">2025</text>
<line x1="60" y1="30.34406215316318" x2="1180" y2="30.34406215316318" stroke="#e2e8f0" stroke-width="1" />
<text x="52" y="33.34406215316318" text-anchor="end">2700</text>
</g>
<g font-family="monospace">
<rect x="60.0" y="170.49204587495376" width="19.169811320754718" height="169.50795412504624" fill="#8b5cf6" rx="2"/>
<text x="69.58490566037736" y="370" transform="rotate(-45 69.58490566037736,370)" text-anchor="middle" font-size="8" fill="#334155">2026-01-01</text>
<text x="69.58490566037736" y="166" text-anchor="middle" font-size="9" fill="#334155">1478</text>
<rect x="81.16981132075472" y="170.49204587495376" width="19.169811320754718" height="169.50795412504624" fill="#8b5cf6" rx="2"/>
<text x="90.75471698113208" y="370" transform="rotate(-45 90.75471698113208,370)" text-anchor="middle" font-size="8" fill="#334155">2026-01-02</text>
<text x="90.75471698113208" y="166" text-anchor="middle" font-size="9" fill="#334155">1478</text>
<rect x="102.33962264150944" y="170.49204587495376" width="19.169811320754718" height="169.50795412504624" fill="#8b5cf6" rx="2"/>
<text x="111.9245283018868" y="370" transform="rotate(-45 111.9245283018868,370)" text-anchor="middle" font-size="8" fill="#334155">2026-01-03</text>
<text x="111.9245283018868" y="166" text-anchor="middle" font-size="9" fill="#334155">1478</text>
<rect x="123.50943396226415" y="147.66925638179802" width="19.169811320754718" height="192.33074361820198" fill="#8b5cf6" rx="2"/>
<text x="133.0943396226415" y="370" transform="rotate(-45 133.0943396226415,370)" text-anchor="middle" font-size="8" fill="#334155">2026-01-04</text>
<text x="133.0943396226415" y="143" text-anchor="middle" font-size="9" fill="#334155">1677</text>
<rect x="144.67924528301887" y="121.06178320384757" width="19.169811320754718" height="218.93821679615243" fill="#8b5cf6" rx="2"/>
<text x="154.26415094339623" y="370" transform="rotate(-45 154.26415094339623,370)" text-anchor="middle" font-size="8" fill="#334155">2026-01-05</text>
<text x="154.26415094339623" y="117" text-anchor="middle" font-size="9" fill="#334155">1909</text>
<rect x="165.8490566037736" y="105.34961154273032" width="19.169811320754718" height="234.65038845726968" fill="#8b5cf6" rx="2"/>
<text x="175.43396226415095" y="370" transform="rotate(-45 175.43396226415095,370)" text-anchor="middle" font-size="8" fill="#334155">2026-01-06</text>
<text x="175.43396226415095" y="101" text-anchor="middle" font-size="9" fill="#334155">2046</text>
<rect x="187.0188679245283" y="104.54679985201628" width="19.169811320754718" height="235.45320014798372" fill="#8b5cf6" rx="2"/>
<text x="196.60377358490567" y="370" transform="rotate(-45 196.60377358490567,370)" text-anchor="middle" font-size="8" fill="#334155">2026-01-07</text>
<text x="196.60377358490567" y="100" text-anchor="middle" font-size="9" fill="#334155">2053</text>
<rect x="208.18867924528303" y="121.29115797262301" width="19.169811320754718" height="218.708842027377" fill="#8b5cf6" rx="2"/>
<text x="217.77358490566039" y="370" transform="rotate(-45 217.77358490566039,370)" text-anchor="middle" font-size="8" fill="#334155">2026-01-08</text>
<text x="217.77358490566039" y="117" text-anchor="middle" font-size="9" fill="#334155">1907</text>
<rect x="229.35849056603774" y="121.29115797262301" width="19.169811320754718" height="218.708842027377" fill="#8b5cf6" rx="2"/>
<text x="238.9433962264151" y="370" transform="rotate(-45 238.9433962264151,370)" text-anchor="middle" font-size="8" fill="#334155">2026-01-09</text>
<text x="238.9433962264151" y="117" text-anchor="middle" font-size="9" fill="#334155">1907</text>
<rect x="250.52830188679246" y="121.29115797262301" width="19.169811320754718" height="218.708842027377" fill="#8b5cf6" rx="2"/>
<text x="260.11320754716985" y="370" transform="rotate(-45 260.11320754716985,370)" text-anchor="middle" font-size="8" fill="#334155">2026-01-10</text>
<text x="260.11320754716985" y="117" text-anchor="middle" font-size="9" fill="#334155">1907</text>
<rect x="271.6981132075472" y="137.23270440251574" width="19.169811320754718" height="202.76729559748426" fill="#8b5cf6" rx="2"/>
<text x="281.2830188679245" y="370" transform="rotate(-45 281.2830188679245,370)" text-anchor="middle" font-size="8" fill="#334155">2026-01-11</text>
<text x="281.2830188679245" y="133" text-anchor="middle" font-size="9" fill="#334155">1768</text>
<rect x="292.8679245283019" y="137.23270440251574" width="19.169811320754718" height="202.76729559748426" fill="#8b5cf6" rx="2"/>
<text x="302.4528301886793" y="370" transform="rotate(-45 302.4528301886793,370)" text-anchor="middle" font-size="8" fill="#334155">2026-01-12</text>
<text x="302.4528301886793" y="133" text-anchor="middle" font-size="9" fill="#334155">1768</text>
<rect x="314.0377358490566" y="137.23270440251574" width="19.169811320754718" height="202.76729559748426" fill="#8b5cf6" rx="2"/>
<text x="323.62264150943395" y="370" transform="rotate(-45 323.62264150943395,370)" text-anchor="middle" font-size="8" fill="#334155">2026-01-13</text>
<text x="323.62264150943395" y="133" text-anchor="middle" font-size="9" fill="#334155">1768</text>
<rect x="335.20754716981133" y="137.23270440251574" width="19.169811320754718" height="202.76729559748426" fill="#8b5cf6" rx="2"/>
<text x="344.7924528301887" y="370" transform="rotate(-45 344.7924528301887,370)" text-anchor="middle" font-size="8" fill="#334155">2026-01-14</text>
<text x="344.7924528301887" y="133" text-anchor="middle" font-size="9" fill="#334155">1768</text>
<rect x="356.37735849056605" y="137.23270440251574" width="19.169811320754718" height="202.76729559748426" fill="#8b5cf6" rx="2"/>
<text x="365.9622641509434" y="370" transform="rotate(-45 365.9622641509434,370)" text-anchor="middle" font-size="8" fill="#334155">2026-01-15</text>
<text x="365.9622641509434" y="133" text-anchor="middle" font-size="9" fill="#334155">1768</text>
<rect x="377.54716981132077" y="137.23270440251574" width="19.169811320754718" height="202.76729559748426" fill="#8b5cf6" rx="2"/>
<text x="387.13207547169816" y="370" transform="rotate(-45 387.13207547169816,370)" text-anchor="middle" font-size="8" fill="#334155">2026-01-16</text>
<text x="387.13207547169816" y="133" text-anchor="middle" font-size="9" fill="#334155">1768</text>
<rect x="398.7169811320755" y="137.23270440251574" width="19.169811320754718" height="202.76729559748426" fill="#8b5cf6" rx="2"/>
<text x="408.3018867924528" y="370" transform="rotate(-45 408.3018867924528,370)" text-anchor="middle" font-size="8" fill="#334155">2026-01-17</text>
<text x="408.3018867924528" y="133" text-anchor="middle" font-size="9" fill="#334155">1768</text>
<rect x="419.8867924528302" y="137.23270440251574" width="19.169811320754718" height="202.76729559748426" fill="#8b5cf6" rx="2"/>
<text x="429.4716981132076" y="370" transform="rotate(-45 429.4716981132076,370)" text-anchor="middle" font-size="8" fill="#334155">2026-01-18</text>
<text x="429.4716981132076" y="133" text-anchor="middle" font-size="9" fill="#334155">1768</text>
<rect x="441.0566037735849" y="137.23270440251574" width="19.169811320754718" height="202.76729559748426" fill="#8b5cf6" rx="2"/>
<text x="450.64150943396226" y="370" transform="rotate(-45 450.64150943396226,370)" text-anchor="middle" font-size="8" fill="#334155">2026-01-19</text>
<text x="450.64150943396226" y="133" text-anchor="middle" font-size="9" fill="#334155">1768</text>
<rect x="462.22641509433964" y="135.1683314835368" width="19.169811320754718" height="204.8316685164632" fill="#8b5cf6" rx="2"/>
<text x="471.81132075471703" y="370" transform="rotate(-45 471.81132075471703,370)" text-anchor="middle" font-size="8" fill="#334155">2026-01-20</text>
<text x="471.81132075471703" y="131" text-anchor="middle" font-size="9" fill="#334155">1786</text>
<rect x="483.39622641509436" y="133.6773954864965" width="19.169811320754718" height="206.3226045135035" fill="#8b5cf6" rx="2"/>
<text x="492.9811320754717" y="370" transform="rotate(-45 492.9811320754717,370)" text-anchor="middle" font-size="8" fill="#334155">2026-01-21</text>
<text x="492.9811320754717" y="129" text-anchor="middle" font-size="9" fill="#334155">1799</text>
<rect x="504.5660377358491" y="133.6773954864965" width="19.169811320754718" height="206.3226045135035" fill="#8b5cf6" rx="2"/>
<text x="514.1509433962265" y="370" transform="rotate(-45 514.1509433962265,370)" text-anchor="middle" font-size="8" fill="#334155">2026-01-22</text>
<text x="514.1509433962265" y="129" text-anchor="middle" font-size="9" fill="#334155">1799</text>
<rect x="525.7358490566038" y="133.33333333333334" width="19.169811320754718" height="206.66666666666666" fill="#8b5cf6" rx="2"/>
<text x="535.3207547169811" y="370" transform="rotate(-45 535.3207547169811,370)" text-anchor="middle" font-size="8" fill="#334155">2026-01-23</text>
<text x="535.3207547169811" y="129" text-anchor="middle" font-size="9" fill="#334155">1802</text>
<rect x="546.9056603773586" y="133.2186459489456" width="19.169811320754718" height="206.7813540510544" fill="#8b5cf6" rx="2"/>
<text x="556.4905660377359" y="370" transform="rotate(-45 556.4905660377359,370)" text-anchor="middle" font-size="8" fill="#334155">2026-01-24</text>
<text x="556.4905660377359" y="129" text-anchor="middle" font-size="9" fill="#334155">1803</text>
<rect x="568.0754716981132" y="129.3192748797632" width="19.169811320754718" height="210.6807251202368" fill="#8b5cf6" rx="2"/>
<text x="577.6603773584906" y="370" transform="rotate(-45 577.6603773584906,370)" text-anchor="middle" font-size="8" fill="#334155">2026-01-25</text>
<text x="577.6603773584906" y="125" text-anchor="middle" font-size="9" fill="#334155">1837</text>
<rect x="589.2452830188679" y="129.2045874953755" width="19.169811320754718" height="210.7954125046245" fill="#8b5cf6" rx="2"/>
<text x="598.8301886792452" y="370" transform="rotate(-45 598.8301886792452,370)" text-anchor="middle" font-size="8" fill="#334155">2026-01-26</text>
<text x="598.8301886792452" y="125" text-anchor="middle" font-size="9" fill="#334155">1838</text>
<rect x="610.4150943396227" y="129.2045874953755" width="19.169811320754718" height="210.7954125046245" fill="#8b5cf6" rx="2"/>
<text x="620.0" y="370" transform="rotate(-45 620.0,370)" text-anchor="middle" font-size="8" fill="#334155">2026-01-27</text>
<text x="620.0" y="125" text-anchor="middle" font-size="9" fill="#334155">1838</text>
<rect x="631.5849056603774" y="129.2045874953755" width="19.169811320754718" height="210.7954125046245" fill="#8b5cf6" rx="2"/>
<text x="641.1698113207548" y="370" transform="rotate(-45 641.1698113207548,370)" text-anchor="middle" font-size="8" fill="#334155">2026-01-28</text>
<text x="641.1698113207548" y="125" text-anchor="middle" font-size="9" fill="#334155">1838</text>
<rect x="652.7547169811321" y="128.97521272660006" width="19.169811320754718" height="211.02478727339994" fill="#8b5cf6" rx="2"/>
<text x="662.3396226415094" y="370" transform="rotate(-45 662.3396226415094,370)" text-anchor="middle" font-size="8" fill="#334155">2026-01-29</text>
<text x="662.3396226415094" y="124" text-anchor="middle" font-size="9" fill="#334155">1840</text>
<rect x="673.9245283018868" y="108.33148353681094" width="19.169811320754718" height="231.66851646318906" fill="#8b5cf6" rx="2"/>
<text x="683.5094339622641" y="370" transform="rotate(-45 683.5094339622641,370)" text-anchor="middle" font-size="8" fill="#334155">2026-01-30</text>
<text x="683.5094339622641" y="104" text-anchor="middle" font-size="9" fill="#334155">2020</text>
<rect x="695.0943396226415" y="106.61117277099518" width="19.169811320754718" height="233.38882722900482" fill="#8b5cf6" rx="2"/>
<text x="704.6792452830189" y="370" transform="rotate(-45 704.6792452830189,370)" text-anchor="middle" font-size="8" fill="#334155">2026-01-31</text>
<text x="704.6792452830189" y="102" text-anchor="middle" font-size="9" fill="#334155">2035</text>
<rect x="716.2641509433963" y="116.01553829078802" width="19.169811320754718" height="223.98446170921198" fill="#8b5cf6" rx="2"/>
<text x="725.8490566037736" y="370" transform="rotate(-45 725.8490566037736,370)" text-anchor="middle" font-size="8" fill="#334155">2026-02-01</text>
<text x="725.8490566037736" y="112" text-anchor="middle" font-size="9" fill="#334155">1953</text>
<rect x="737.433962264151" y="114.86866444691083" width="19.169811320754718" height="225.13133555308917" fill="#8b5cf6" rx="2"/>
<text x="747.0188679245283" y="370" transform="rotate(-45 747.0188679245283,370)" text-anchor="middle" font-size="8" fill="#334155">2026-02-02</text>
<text x="747.0188679245283" y="110" text-anchor="middle" font-size="9" fill="#334155">1963</text>
<rect x="758.6037735849056" y="114.63928967813541" width="19.169811320754718" height="225.3607103218646" fill="#8b5cf6" rx="2"/>
<text x="768.188679245283" y="370" transform="rotate(-45 768.188679245283,370)" text-anchor="middle" font-size="8" fill="#334155">2026-02-03</text>
<text x="768.188679245283" y="110" text-anchor="middle" font-size="9" fill="#334155">1965</text>
<rect x="779.7735849056604" y="114.63928967813541" width="19.169811320754718" height="225.3607103218646" fill="#8b5cf6" rx="2"/>
<text x="789.3584905660377" y="370" transform="rotate(-45 789.3584905660377,370)" text-anchor="middle" font-size="8" fill="#334155">2026-02-04</text>
<text x="789.3584905660377" y="110" text-anchor="middle" font-size="9" fill="#334155">1965</text>
<rect x="800.9433962264152" y="111.54273029966706" width="19.169811320754718" height="228.45726970033294" fill="#8b5cf6" rx="2"/>
<text x="810.5283018867925" y="370" transform="rotate(-45 810.5283018867925,370)" text-anchor="middle" font-size="8" fill="#334155">2026-02-05</text>
<text x="810.5283018867925" y="107" text-anchor="middle" font-size="9" fill="#334155">1992</text>
<rect x="822.1132075471698" y="111.1986681465039" width="19.169811320754718" height="228.8013318534961" fill="#8b5cf6" rx="2"/>
<text x="831.6981132075472" y="370" transform="rotate(-45 831.6981132075472,370)" text-anchor="middle" font-size="8" fill="#334155">2026-02-06</text>
<text x="831.6981132075472" y="107" text-anchor="middle" font-size="9" fill="#334155">1995</text>
<rect x="843.2830188679245" y="111.1986681465039" width="19.169811320754718" height="228.8013318534961" fill="#8b5cf6" rx="2"/>
<text x="852.8679245283018" y="370" transform="rotate(-45 852.8679245283018,370)" text-anchor="middle" font-size="8" fill="#334155">2026-02-07</text>
<text x="852.8679245283018" y="107" text-anchor="middle" font-size="9" fill="#334155">1995</text>
<rect x="864.4528301886793" y="111.1986681465039" width="19.169811320754718" height="228.8013318534961" fill="#8b5cf6" rx="2"/>
<text x="874.0377358490566" y="370" transform="rotate(-45 874.0377358490566,370)" text-anchor="middle" font-size="8" fill="#334155">2026-02-08</text>
<text x="874.0377358490566" y="107" text-anchor="middle" font-size="9" fill="#334155">1995</text>
<rect x="885.6226415094341" y="103.74398816130227" width="19.169811320754718" height="236.25601183869773" fill="#8b5cf6" rx="2"/>
<text x="895.2075471698114" y="370" transform="rotate(-45 895.2075471698114,370)" text-anchor="middle" font-size="8" fill="#334155">2026-02-09</text>
<text x="895.2075471698114" y="99" text-anchor="middle" font-size="9" fill="#334155">2060</text>
<rect x="906.7924528301887" y="102.02367739548649" width="19.169811320754718" height="237.9763226045135" fill="#8b5cf6" rx="2"/>
<text x="916.377358490566" y="370" transform="rotate(-45 916.377358490566,370)" text-anchor="middle" font-size="8" fill="#334155">2026-02-10</text>
<text x="916.377358490566" y="98" text-anchor="middle" font-size="9" fill="#334155">2075</text>
<rect x="927.9622641509434" y="102.02367739548649" width="19.169811320754718" height="237.9763226045135" fill="#8b5cf6" rx="2"/>
<text x="937.5471698113207" y="370" transform="rotate(-45 937.5471698113207,370)" text-anchor="middle" font-size="8" fill="#334155">2026-02-11</text>
<text x="937.5471698113207" y="98" text-anchor="middle" font-size="9" fill="#334155">2075</text>
<rect x="949.1320754716982" y="100.64742878283391" width="19.169811320754718" height="239.3525712171661" fill="#8b5cf6" rx="2"/>
<text x="958.7169811320755" y="370" transform="rotate(-45 958.7169811320755,370)" text-anchor="middle" font-size="8" fill="#334155">2026-02-12</text>
<text x="958.7169811320755" y="96" text-anchor="middle" font-size="9" fill="#334155">2087</text>
<rect x="970.3018867924529" y="97.09211986681464" width="19.169811320754718" height="242.90788013318536" fill="#8b5cf6" rx="2"/>
<text x="979.8867924528303" y="370" transform="rotate(-45 979.8867924528303,370)" text-anchor="middle" font-size="8" fill="#334155">2026-02-13</text>
<text x="979.8867924528303" y="93" text-anchor="middle" font-size="9" fill="#334155">2118</text>
<rect x="991.4716981132076" y="97.09211986681464" width="19.169811320754718" height="242.90788013318536" fill="#8b5cf6" rx="2"/>
<text x="1001.0566037735849" y="370" transform="rotate(-45 1001.0566037735849,370)" text-anchor="middle" font-size="8" fill="#334155">2026-02-14</text>
<text x="1001.0566037735849" y="93" text-anchor="middle" font-size="9" fill="#334155">2118</text>
<rect x="1012.6415094339623" y="97.09211986681464" width="19.169811320754718" height="242.90788013318536" fill="#8b5cf6" rx="2"/>
<text x="1022.2264150943396" y="370" transform="rotate(-45 1022.2264150943396,370)" text-anchor="middle" font-size="8" fill="#334155">2026-02-15</text>
<text x="1022.2264150943396" y="93" text-anchor="middle" font-size="9" fill="#334155">2118</text>
<rect x="1033.8113207547171" y="97.09211986681464" width="19.169811320754718" height="242.90788013318536" fill="#8b5cf6" rx="2"/>
<text x="1043.3962264150946" y="370" transform="rotate(-45 1043.3962264150946,370)" text-anchor="middle" font-size="8" fill="#334155">2026-02-16</text>
<text x="1043.3962264150946" y="93" text-anchor="middle" font-size="9" fill="#334155">2118</text>
<rect x="1054.9811320754718" y="90.21087680355163" width="19.169811320754718" height="249.78912319644837" fill="#8b5cf6" rx="2"/>
<text x="1064.5660377358492" y="370" transform="rotate(-45 1064.5660377358492,370)" text-anchor="middle" font-size="8" fill="#334155">2026-02-17</text>
<text x="1064.5660377358492" y="86" text-anchor="middle" font-size="9" fill="#334155">2178</text>
<rect x="1076.1509433962265" y="83.90307066222715" width="19.169811320754718" height="256.09692933777285" fill="#8b5cf6" rx="2"/>
<text x="1085.735849056604" y="370" transform="rotate(-45 1085.735849056604,370)" text-anchor="middle" font-size="8" fill="#334155">2026-02-18</text>
<text x="1085.735849056604" y="79" text-anchor="middle" font-size="9" fill="#334155">2233</text>
<rect x="1097.3207547169811" y="34.81687014428411" width="19.169811320754718" height="305.1831298557159" fill="#8b5cf6" rx="2"/>
<text x="1106.9056603773586" y="370" transform="rotate(-45 1106.9056603773586,370)" text-anchor="middle" font-size="8" fill="#334155">2026-02-19</text>
<text x="1106.9056603773586" y="30" text-anchor="middle" font-size="9" fill="#334155">2661</text>
<rect x="1118.4905660377358" y="34.81687014428411" width="19.169811320754718" height="305.1831298557159" fill="#8b5cf6" rx="2"/>
<text x="1128.0754716981132" y="370" transform="rotate(-45 1128.0754716981132,370)" text-anchor="middle" font-size="8" fill="#334155">2026-02-20</text>
<text x="1128.0754716981132" y="30" text-anchor="middle" font-size="9" fill="#334155">2661</text>
<rect x="1139.6603773584907" y="30.0" width="19.169811320754718" height="310.0" fill="#8b5cf6" rx="2"/>
<text x="1149.2452830188681" y="370" transform="rotate(-45 1149.2452830188681,370)" text-anchor="middle" font-size="8" fill="#334155">2026-02-21</text>
<text x="1149.2452830188681" y="26" text-anchor="middle" font-size="9" fill="#334155">2703</text>
<rect x="1160.8301886792453" y="30.0" width="19.169811320754718" height="310.0" fill="#8b5cf6" rx="2"/>
<text x="1170.4150943396228" y="370" transform="rotate(-45 1170.4150943396228,370)" text-anchor="middle" font-size="8" fill="#334155">2026-02-22</text>
<text x="1170.4150943396228" y="26" text-anchor="middle" font-size="9" fill="#334155">2703</text>
</g>
</svg>