<svg xmlns="http://www.w3.org/2000/svg" viewBox="0 0 1400 360">
<text x="64" y="44" fill="#0f172a" font-size="30" font-weight="600" font-family="-apple-system, SF Pro Text, system-ui, sans-serif">swift-repo-stats-cli output</text>
<text x="64" y="72" fill="#334155" font-size="14" font-family="-apple-system, SF Pro Text, system-ui, sans-serif">Owner activity window: Feb 22, 2026 → Feb 23, 2026</text>
<text x="64" y="95" fill="#64748b" font-size="12" font-family="-apple-system, SF Pro Text, system-ui, sans-serif">Source: swift-repo-stats-cli</text>
<rect x="64" y="116" width="296" height="200" rx="18" fill="#2563eb20" stroke="#2563eb" stroke-width="2" opacity="0.85"/>
<text x="82" y="154" fill="#93c5fd" font-size="12" font-family="-apple-system, SF Pro Text, system-ui, sans-serif" letter-spacing="0.4" font-weight="600">Commits</text>
<text x="82" y="200" fill="#0f172a" font-size="34" font-family="-apple-system, SF Pro Text, system-ui, sans-serif" font-weight="700">0</text>
<text x="82" y="238" fill="#1e293b" font-size="14" font-family="-apple-system, SF Pro Text, system-ui, sans-serif">Day window</text>
<rect x="82" y="264" width="260" height="8" rx="999" fill="#2563eb" opacity="0.33"/>
<rect x="82" y="264" width="260" height="8" rx="999" fill="#93c5fd" opacity="0.78"/>
<circle cx="86" cy="292" r="3" fill="#2563eb"/>
<circle cx="108" cy="292" r="3" fill="#93c5fd"/>
<circle cx="130" cy="292" r="3" fill="#38bdf8"/>
<text x="82" y="306" fill="#475569" font-size="11" font-family="-apple-system, SF Pro Text, system-ui, sans-serif">Trend snapshot for dashboard snapshots.</text>
<rect x="390" y="116" width="296" height="200" rx="18" fill="#0f766e20" stroke="#0f766e" stroke-width="2" opacity="0.85"/>
<text x="408" y="154" fill="#5eead4" font-size="12" font-family="-apple-system, SF Pro Text, system-ui, sans-serif" letter-spacing="0.4" font-weight="600">Swift files</text>
<text x="408" y="200" fill="#0f172a" font-size="34" font-family="-apple-system, SF Pro Text, system-ui, sans-serif" font-weight="700">3776</text>
<text x="408" y="238" fill="#1e293b" font-size="14" font-family="-apple-system, SF Pro Text, system-ui, sans-serif">Day window</text>
<rect x="408" y="264" width="260" height="8" rx="999" fill="#0f766e" opacity="0.33"/>
<rect x="408" y="264" width="260" height="8" rx="999" fill="#5eead4" opacity="0.78"/>
<circle cx="412" cy="292" r="3" fill="#0f766e"/>
<circle cx="434" cy="292" r="3" fill="#5eead4"/>
<circle cx="456" cy="292" r="3" fill="#38bdf8"/>
<text x="408" y="306" fill="#475569" font-size="11" font-family="-apple-system, SF Pro Text, system-ui, sans-serif">Trend snapshot for dashboard snapshots.</text>
<rect x="716" y="116" width="296" height="200" rx="18" fill="#8b5cf620" stroke="#8b5cf6" stroke-width="2" opacity="0.85"/>
<text x="734" y="154" fill="#ddd6fe" font-size="12" font-family="-apple-system, SF Pro Text, system-ui, sans-serif" letter-spacing="0.4" font-weight="600">Markdown files</text>
<text x="734" y="200" fill="#0f172a" font-size="34" font-family="-apple-system, SF Pro Text, system-ui, sans-serif" font-weight="700">3232</text>
<text x="734" y="238" fill="#1e293b" font-size="14" font-family="-apple-system, SF Pro Text, system-ui, sans-serif">Day window</text>
<rect x="734" y="264" width="260" height="8" rx="999" fill="#8b5cf6" opacity="0.33"/>
<rect x="734" y="264" width="260" height="8" rx="999" fill="#ddd6fe" opacity="0.78"/>
<circle cx="738" cy="292" r="3" fill="#8b5cf6"/>
<circle cx="760" cy="292" r="3" fill="#ddd6fe"/>
<circle cx="782" cy="292" r="3" fill="#38bdf8"/>
<text x="734" y="306" fill="#475569" font-size="11" font-family="-apple-system, SF Pro Text, system-ui, sans-serif">Trend snapshot for dashboard snapshots.</text>
<rect x="1042" y="116" width="296" height="200" rx="18" fill="#0ea5e920" stroke="#0ea5e9" stroke-width="2" opacity="0.85"/>
<text x="1060" y="154" fill="#7dd3fc" font-size="12" font-family="-apple-system, SF Pro Text, system-ui, sans-serif" letter-spacing="0.4" font-weight="600">DocC + package.swift</text>
<text x="1060" y="200" fill="#0f172a" font-size="34" font-family="-apple-system, SF Pro Text, system-ui, sans-serif" font-weight="700">174 · 157</text>
<text x="1060" y="238" fill="#1e293b" font-size="14" font-family="-apple-system, SF Pro Text, system-ui, sans-serif">Day window</text>
<rect x="1060" y="264" width="260" height="8" rx="999" fill="#0ea5e9" opacity="0.33"/>
<rect x="1060" y="264" width="260" height="8" rx="999" fill="#7dd3fc" opacity="0.78"/>
<circle cx="1064" cy="292" r="3" fill="#0ea5e9"/>
<circle cx="1086" cy="292" r="3" fill="#7dd3fc"/>
<circle cx="1108" cy="292" r="3" fill="#38bdf8"/>
<text x="1060" y="306" fill="#475569" font-size="11" font-family="-apple-system, SF Pro Text, system-ui, sans-serif">Trend snapshot for dashboard snapshots.</text>
</svg>